<?xml version="1.0" encoding="UTF-8" standalone="no"?>
<!DOCTYPE svg PUBLIC "-//W3C//DTD SVG 1.1//EN"
 "http://www.w3.org/Graphics/SVG/1.1/DTD/svg11.dtd">
<!-- Generated by graphviz version 2.40.1 (20161225.0304)
 -->
<!-- Title: orphans Pages: 1 -->
<svg width="387pt" height="1429pt"
 viewBox="0.00 0.00 387.00 1429.00" xmlns="http://www.w3.org/2000/svg" xmlns:xlink="http://www.w3.org/1999/xlink">
<g id="graph0" class="graph" transform="scale(1 1) rotate(0) translate(4 1425)">
<title>orphans</title>
<polygon fill="#ffffff" stroke="transparent" points="-4,4 -4,-1425 383,-1425 383,4 -4,4"/>
<!-- location_measurements_backup -->
<g id="node1" class="node">
<title>location_measurements_backup</title>
<g id="a_node1"><a xlink:href="../../tables/location_measurements_backup.html" xlink:title="location_measurements_backup" target="_top">
<polygon fill="#ffffff" stroke="transparent" points="8,-4 8,-358 371,-358 371,-4 8,-4"/>
<polygon fill="#f5f5f5" stroke="transparent" points="10.5,-333 10.5,-356 369.5,-356 369.5,-333 10.5,-333"/>
<polygon fill="none" stroke="#000000" points="10.5,-333 10.5,-356 369.5,-356 369.5,-333 10.5,-333"/>
<text text-anchor="start" x="15.5" y="-341.6" font-family="Helvetica,sans-Serif" font-weight="bold" font-size="11.00" fill="#000000">location_measurements_backup</text>
<text text-anchor="start" x="334.5437" y="-341.1" font-family="Helvetica,sans-Serif" font-size="11.00" fill="#000000">[table]</text>
<polygon fill="none" stroke="#000000" points="10.5,-311 10.5,-333 246.5,-333 246.5,-311 10.5,-311"/>
<text text-anchor="start" x="30.5" y="-318.1" font-family="Helvetica,sans-Serif" font-size="11.00" fill="#000000">location_id</text>
<polygon fill="none" stroke="#000000" points="246.5,-311 246.5,-333 369.5,-333 369.5,-311 246.5,-311"/>
<text text-anchor="start" x="249.5" y="-318.7" font-family="Helvetica,sans-Serif" font-size="11.00" fill="#000000">int8[19]</text>
<polygon fill="none" stroke="#000000" points="10.5,-289 10.5,-311 246.5,-311 246.5,-289 10.5,-289"/>
<text text-anchor="start" x="30.5" y="-296.1" font-family="Helvetica,sans-Serif" font-size="11.00" fill="#000000">access_point_id</text>
<polygon fill="none" stroke="#000000" points="246.5,-289 246.5,-311 369.5,-311 369.5,-289 246.5,-289"/>
<text text-anchor="start" x="249.5" y="-296.7" font-family="Helvetica,sans-Serif" font-size="11.00" fill="#000000">int8[19]</text>
<polygon fill="none" stroke="#000000" points="10.5,-267 10.5,-289 246.5,-289 246.5,-267 10.5,-267"/>
<text text-anchor="start" x="30.5" y="-274.1" font-family="Helvetica,sans-Serif" font-size="11.00" fill="#000000">data_source_id</text>
<polygon fill="none" stroke="#000000" points="246.5,-267 246.5,-289 369.5,-289 369.5,-267 246.5,-267"/>
<text text-anchor="start" x="249.5" y="-274.7" font-family="Helvetica,sans-Serif" font-size="11.00" fill="#000000">int4[10]</text>
<polygon fill="none" stroke="#000000" points="10.5,-245 10.5,-267 246.5,-267 246.5,-245 10.5,-245"/>
<text text-anchor="start" x="30.5" y="-252.1" font-family="Helvetica,sans-Serif" font-size="11.00" fill="#000000">latitude_degrees</text>
<polygon fill="none" stroke="#000000" points="246.5,-245 246.5,-267 369.5,-267 369.5,-245 246.5,-245"/>
<text text-anchor="start" x="249.5" y="-252.7" font-family="Helvetica,sans-Serif" font-size="11.00" fill="#000000">latitude_degrees[12,8]</text>
<polygon fill="none" stroke="#000000" points="10.5,-223 10.5,-245 246.5,-245 246.5,-223 10.5,-223"/>
<text text-anchor="start" x="30.5" y="-230.1" font-family="Helvetica,sans-Serif" font-size="11.00" fill="#000000">longitude_degrees</text>
<polygon fill="none" stroke="#000000" points="246.5,-223 246.5,-245 369.5,-245 369.5,-223 246.5,-223"/>
<text text-anchor="start" x="249.0026" y="-230.7" font-family="Helvetica,sans-Serif" font-size="11.00" fill="#000000">longitude_degrees[12,8]</text>
<polygon fill="none" stroke="#000000" points="10.5,-201 10.5,-223 246.5,-223 246.5,-201 10.5,-201"/>
<text text-anchor="start" x="30.5" y="-208.1" font-family="Helvetica,sans-Serif" font-size="11.00" fill="#000000">altitude_meters</text>
<polygon fill="none" stroke="#000000" points="246.5,-201 246.5,-223 369.5,-223 369.5,-201 246.5,-201"/>
<text text-anchor="start" x="249.5" y="-208.7" font-family="Helvetica,sans-Serif" font-size="11.00" fill="#000000">altitude_meters[12,2]</text>
<polygon fill="none" stroke="#000000" points="10.5,-179 10.5,-201 246.5,-201 246.5,-179 10.5,-179"/>
<text text-anchor="start" x="30.5" y="-186.1" font-family="Helvetica,sans-Serif" font-size="11.00" fill="#000000">position_accuracy_meters</text>
<polygon fill="none" stroke="#000000" points="246.5,-179 246.5,-201 369.5,-201 369.5,-179 246.5,-179"/>
<text text-anchor="start" x="249.5" y="-186.7" font-family="Helvetica,sans-Serif" font-size="11.00" fill="#000000">accuracy_meters[12,2]</text>
<polygon fill="none" stroke="#000000" points="10.5,-157 10.5,-179 246.5,-179 246.5,-157 10.5,-157"/>
<text text-anchor="start" x="30.5" y="-164.1" font-family="Helvetica,sans-Serif" font-size="11.00" fill="#000000">location_point</text>
<polygon fill="none" stroke="#000000" points="246.5,-157 246.5,-179 369.5,-179 369.5,-157 246.5,-157"/>
<text text-anchor="start" x="249.5" y="-164.7" font-family="Helvetica,sans-Serif" font-size="11.00" fill="#000000">geometry[2147483647]</text>
<polygon fill="none" stroke="#000000" points="10.5,-135 10.5,-157 246.5,-157 246.5,-135 10.5,-135"/>
<text text-anchor="start" x="30.5" y="-142.1" font-family="Helvetica,sans-Serif" font-size="11.00" fill="#000000">measurement_timestamp_ms</text>
<polygon fill="none" stroke="#000000" points="246.5,-135 246.5,-157 369.5,-157 369.5,-135 246.5,-135"/>
<text text-anchor="start" x="249.5" y="-142.7" font-family="Helvetica,sans-Serif" font-size="11.00" fill="#000000">int8[19]</text>
<polygon fill="none" stroke="#000000" points="10.5,-113 10.5,-135 246.5,-135 246.5,-113 10.5,-113"/>
<text text-anchor="start" x="30.5" y="-120.1" font-family="Helvetica,sans-Serif" font-size="11.00" fill="#000000">measurement_duration_ms</text>
<polygon fill="none" stroke="#000000" points="246.5,-113 246.5,-135 369.5,-135 369.5,-113 246.5,-113"/>
<text text-anchor="start" x="249.5" y="-120.7" font-family="Helvetica,sans-Serif" font-size="11.00" fill="#000000">int4[10]</text>
<polygon fill="none" stroke="#000000" points="10.5,-91 10.5,-113 246.5,-113 246.5,-91 10.5,-91"/>
<text text-anchor="start" x="30.5" y="-98.1" font-family="Helvetica,sans-Serif" font-size="11.00" fill="#000000">data_confidence_score</text>
<polygon fill="none" stroke="#000000" points="246.5,-91 246.5,-113 369.5,-113 369.5,-91 246.5,-91"/>
<text text-anchor="start" x="249.5" y="-98.7" font-family="Helvetica,sans-Serif" font-size="11.00" fill="#000000">numeric[3,2]</text>
<polygon fill="none" stroke="#000000" points="10.5,-69 10.5,-91 246.5,-91 246.5,-69 10.5,-69"/>
<text text-anchor="start" x="30.5" y="-76.1" font-family="Helvetica,sans-Serif" font-size="11.00" fill="#000000">anomaly_flags</text>
<polygon fill="none" stroke="#000000" points="246.5,-69 246.5,-91 369.5,-91 369.5,-69 246.5,-69"/>
<text text-anchor="start" x="249.5" y="-76.7" font-family="Helvetica,sans-Serif" font-size="11.00" fill="#000000">_text[2147483647]</text>
<polygon fill="none" stroke="#000000" points="10.5,-47 10.5,-69 246.5,-69 246.5,-47 10.5,-47"/>
<text text-anchor="start" x="30.5" y="-54.1" font-family="Helvetica,sans-Serif" font-size="11.00" fill="#000000">original_record_id</text>
<polygon fill="none" stroke="#000000" points="246.5,-47 246.5,-69 369.5,-69 369.5,-47 246.5,-47"/>
<text text-anchor="start" x="249.5" y="-54.7" font-family="Helvetica,sans-Serif" font-size="11.00" fill="#000000">int4[10]</text>
<polygon fill="none" stroke="#000000" points="10.5,-25 10.5,-47 246.5,-47 246.5,-25 10.5,-25"/>
<text text-anchor="start" x="30.5" y="-32.1" font-family="Helvetica,sans-Serif" font-size="11.00" fill="#000000">record_created_at</text>
<polygon fill="none" stroke="#000000" points="246.5,-25 246.5,-47 369.5,-47 369.5,-25 246.5,-25"/>
<text text-anchor="start" x="249.5" y="-32.7" font-family="Helvetica,sans-Serif" font-size="11.00" fill="#000000">timestamptz[35,6]</text>
<polygon fill="#ffffff" stroke="transparent" points="10.5,-6 10.5,-25 102.5,-25 102.5,-6 10.5,-6"/>
<polygon fill="none" stroke="#000000" points="10.5,-6 10.5,-25 102.5,-25 102.5,-6 10.5,-6"/>
<text text-anchor="start" x="13.5" y="-12.1" font-family="Helvetica,sans-Serif" font-size="11.00" fill="#000000">&lt; 0</text>
<polygon fill="#ffffff" stroke="transparent" points="102.5,-6 102.5,-25 246.5,-25 246.5,-6 102.5,-6"/>
<polygon fill="none" stroke="#000000" points="102.5,-6 102.5,-25 246.5,-25 246.5,-6 102.5,-6"/>
<text text-anchor="start" x="177.4791" y="-12.1" font-family="Helvetica,sans-Serif" font-size="11.00" fill="#000000">388,557 rows</text>
<polygon fill="#ffffff" stroke="transparent" points="246.5,-6 246.5,-25 369.5,-25 369.5,-6 246.5,-6"/>
<polygon fill="none" stroke="#000000" points="246.5,-6 246.5,-25 369.5,-25 369.5,-6 246.5,-6"/>
<text text-anchor="start" x="350.9053" y="-12.1" font-family="Helvetica,sans-Serif" font-size="11.00" fill="#000000">0 &gt;</text>
<polygon fill="none" stroke="#000000" stroke-width="2" points="9,-5 9,-357 370,-357 370,-5 9,-5"/>
</a>
</g>
</g>
<!-- network_observations_backup -->
<g id="node2" class="node">
<title>network_observations_backup</title>
<g id="a_node2"><a xlink:href="../../tables/network_observations_backup.html" xlink:title="network_observations_backup" target="_top">
<polygon fill="#ffffff" stroke="transparent" points="26.5,-379 26.5,-887 352.5,-887 352.5,-379 26.5,-379"/>
<polygon fill="#f5f5f5" stroke="transparent" points="28.5,-862 28.5,-885 350.5,-885 350.5,-862 28.5,-862"/>
<polygon fill="none" stroke="#000000" points="28.5,-862 28.5,-885 350.5,-885 350.5,-862 28.5,-862"/>
<text text-anchor="start" x="33.5" y="-870.6" font-family="Helvetica,sans-Serif" font-weight="bold" font-size="11.00" fill="#000000">network_observations_backup</text>
<text text-anchor="start" x="315.5437" y="-870.1" font-family="Helvetica,sans-Serif" font-size="11.00" fill="#000000">[table]</text>
<polygon fill="none" stroke="#000000" points="28.5,-840 28.5,-862 253.5,-862 253.5,-840 28.5,-840"/>
<text text-anchor="start" x="48.5" y="-847.1" font-family="Helvetica,sans-Serif" font-size="11.00" fill="#000000">observation_id</text>
<polygon fill="none" stroke="#000000" points="253.5,-840 253.5,-862 350.5,-862 350.5,-840 253.5,-840"/>
<text text-anchor="start" x="256.5" y="-847.7" font-family="Helvetica,sans-Serif" font-size="11.00" fill="#000000">int8[19]</text>
<polygon fill="none" stroke="#000000" points="28.5,-818 28.5,-840 253.5,-840 253.5,-818 28.5,-818"/>
<text text-anchor="start" x="48.5" y="-825.1" font-family="Helvetica,sans-Serif" font-size="11.00" fill="#000000">access_point_id</text>
<polygon fill="none" stroke="#000000" points="253.5,-818 253.5,-840 350.5,-840 350.5,-818 253.5,-818"/>
<text text-anchor="start" x="256.5" y="-825.7" font-family="Helvetica,sans-Serif" font-size="11.00" fill="#000000">int8[19]</text>
<polygon fill="none" stroke="#000000" points="28.5,-796 28.5,-818 253.5,-818 253.5,-796 28.5,-796"/>
<text text-anchor="start" x="48.5" y="-803.1" font-family="Helvetica,sans-Serif" font-size="11.00" fill="#000000">data_source_id</text>
<polygon fill="none" stroke="#000000" points="253.5,-796 253.5,-818 350.5,-818 350.5,-796 253.5,-796"/>
<text text-anchor="start" x="256.5" y="-803.7" font-family="Helvetica,sans-Serif" font-size="11.00" fill="#000000">int4[10]</text>
<polygon fill="none" stroke="#000000" points="28.5,-774 28.5,-796 253.5,-796 253.5,-774 28.5,-774"/>
<text text-anchor="start" x="48.5" y="-781.1" font-family="Helvetica,sans-Serif" font-size="11.00" fill="#000000">network_ssid</text>
<polygon fill="none" stroke="#000000" points="253.5,-774 253.5,-796 350.5,-796 350.5,-774 253.5,-774"/>
<text text-anchor="start" x="256.5" y="-781.7" font-family="Helvetica,sans-Serif" font-size="11.00" fill="#000000">text[2147483647]</text>
<polygon fill="none" stroke="#000000" points="28.5,-752 28.5,-774 253.5,-774 253.5,-752 28.5,-752"/>
<text text-anchor="start" x="48.5" y="-759.1" font-family="Helvetica,sans-Serif" font-size="11.00" fill="#000000">is_hidden_network</text>
<polygon fill="none" stroke="#000000" points="253.5,-752 253.5,-774 350.5,-774 350.5,-752 253.5,-752"/>
<text text-anchor="start" x="256.5" y="-759.7" font-family="Helvetica,sans-Serif" font-size="11.00" fill="#000000">bool[1]</text>
<polygon fill="none" stroke="#000000" points="28.5,-730 28.5,-752 253.5,-752 253.5,-730 28.5,-730"/>
<text text-anchor="start" x="48.5" y="-737.1" font-family="Helvetica,sans-Serif" font-size="11.00" fill="#000000">frequency_hz</text>
<polygon fill="none" stroke="#000000" points="253.5,-730 253.5,-752 350.5,-752 350.5,-730 253.5,-730"/>
<text text-anchor="start" x="256.5" y="-737.7" font-family="Helvetica,sans-Serif" font-size="11.00" fill="#000000">int4[10]</text>
<polygon fill="none" stroke="#000000" points="28.5,-708 28.5,-730 253.5,-730 253.5,-708 28.5,-708"/>
<text text-anchor="start" x="48.5" y="-715.1" font-family="Helvetica,sans-Serif" font-size="11.00" fill="#000000">channel_number</text>
<polygon fill="none" stroke="#000000" points="253.5,-708 253.5,-730 350.5,-730 350.5,-708 253.5,-708"/>
<text text-anchor="start" x="256.5" y="-715.7" font-family="Helvetica,sans-Serif" font-size="11.00" fill="#000000">int4[10]</text>
<polygon fill="none" stroke="#000000" points="28.5,-686 28.5,-708 253.5,-708 253.5,-686 28.5,-686"/>
<text text-anchor="start" x="48.5" y="-693.1" font-family="Helvetica,sans-Serif" font-size="11.00" fill="#000000">channel_width_mhz</text>
<polygon fill="none" stroke="#000000" points="253.5,-686 253.5,-708 350.5,-708 350.5,-686 253.5,-686"/>
<text text-anchor="start" x="256.5" y="-693.7" font-family="Helvetica,sans-Serif" font-size="11.00" fill="#000000">int4[10]</text>
<polygon fill="none" stroke="#000000" points="28.5,-664 28.5,-686 253.5,-686 253.5,-664 28.5,-664"/>
<text text-anchor="start" x="48.5" y="-671.1" font-family="Helvetica,sans-Serif" font-size="11.00" fill="#000000">capabilities_string</text>
<polygon fill="none" stroke="#000000" points="253.5,-664 253.5,-686 350.5,-686 350.5,-664 253.5,-664"/>
<text text-anchor="start" x="256.5" y="-671.7" font-family="Helvetica,sans-Serif" font-size="11.00" fill="#000000">text[2147483647]</text>
<polygon fill="none" stroke="#000000" points="28.5,-642 28.5,-664 253.5,-664 253.5,-642 28.5,-642"/>
<text text-anchor="start" x="48.5" y="-649.1" font-family="Helvetica,sans-Serif" font-size="11.00" fill="#000000">encryption_type</text>
<polygon fill="none" stroke="#000000" points="253.5,-642 253.5,-664 350.5,-664 350.5,-642 253.5,-642"/>
<text text-anchor="start" x="256.5" y="-649.7" font-family="Helvetica,sans-Serif" font-size="11.00" fill="#000000">text[2147483647]</text>
<polygon fill="none" stroke="#000000" points="28.5,-620 28.5,-642 253.5,-642 253.5,-620 28.5,-620"/>
<text text-anchor="start" x="48.5" y="-627.1" font-family="Helvetica,sans-Serif" font-size="11.00" fill="#000000">signal_strength_dbm</text>
<polygon fill="none" stroke="#000000" points="253.5,-620 253.5,-642 350.5,-642 350.5,-620 253.5,-620"/>
<text text-anchor="start" x="256.5" y="-627.7" font-family="Helvetica,sans-Serif" font-size="11.00" fill="#000000">int2[5]</text>
<polygon fill="none" stroke="#000000" points="28.5,-598 28.5,-620 253.5,-620 253.5,-598 28.5,-598"/>
<text text-anchor="start" x="48.5" y="-605.1" font-family="Helvetica,sans-Serif" font-size="11.00" fill="#000000">noise_floor_dbm</text>
<polygon fill="none" stroke="#000000" points="253.5,-598 253.5,-620 350.5,-620 350.5,-598 253.5,-598"/>
<text text-anchor="start" x="256.5" y="-605.7" font-family="Helvetica,sans-Serif" font-size="11.00" fill="#000000">int2[5]</text>
<polygon fill="none" stroke="#000000" points="28.5,-576 28.5,-598 253.5,-598 253.5,-576 28.5,-576"/>
<text text-anchor="start" x="48.5" y="-583.1" font-family="Helvetica,sans-Serif" font-size="11.00" fill="#000000">signal_to_noise_ratio_db</text>
<polygon fill="none" stroke="#000000" points="253.5,-576 253.5,-598 350.5,-598 350.5,-576 253.5,-576"/>
<text text-anchor="start" x="256.5" y="-583.7" font-family="Helvetica,sans-Serif" font-size="11.00" fill="#000000">int2[5]</text>
<polygon fill="none" stroke="#000000" points="28.5,-554 28.5,-576 253.5,-576 253.5,-554 28.5,-554"/>
<text text-anchor="start" x="48.5" y="-561.1" font-family="Helvetica,sans-Serif" font-size="11.00" fill="#000000">observation_timestamp_ms</text>
<polygon fill="none" stroke="#000000" points="253.5,-554 253.5,-576 350.5,-576 350.5,-554 253.5,-554"/>
<text text-anchor="start" x="256.5" y="-561.7" font-family="Helvetica,sans-Serif" font-size="11.00" fill="#000000">int8[19]</text>
<polygon fill="none" stroke="#000000" points="28.5,-532 28.5,-554 253.5,-554 253.5,-532 28.5,-532"/>
<text text-anchor="start" x="48.5" y="-539.1" font-family="Helvetica,sans-Serif" font-size="11.00" fill="#000000">observation_duration_ms</text>
<polygon fill="none" stroke="#000000" points="253.5,-532 253.5,-554 350.5,-554 350.5,-532 253.5,-532"/>
<text text-anchor="start" x="256.5" y="-539.7" font-family="Helvetica,sans-Serif" font-size="11.00" fill="#000000">int4[10]</text>
<polygon fill="none" stroke="#000000" points="28.5,-510 28.5,-532 253.5,-532 253.5,-510 28.5,-510"/>
<text text-anchor="start" x="48.5" y="-517.1" font-family="Helvetica,sans-Serif" font-size="11.00" fill="#000000">data_confidence_score</text>
<polygon fill="none" stroke="#000000" points="253.5,-510 253.5,-532 350.5,-532 350.5,-510 253.5,-510"/>
<text text-anchor="start" x="256.5" y="-517.7" font-family="Helvetica,sans-Serif" font-size="11.00" fill="#000000">numeric[3,2]</text>
<polygon fill="none" stroke="#000000" points="28.5,-488 28.5,-510 253.5,-510 253.5,-488 28.5,-488"/>
<text text-anchor="start" x="48.5" y="-495.1" font-family="Helvetica,sans-Serif" font-size="11.00" fill="#000000">quality_flags</text>
<polygon fill="none" stroke="#000000" points="253.5,-488 253.5,-510 350.5,-510 350.5,-488 253.5,-488"/>
<text text-anchor="start" x="256.4468" y="-495.7" font-family="Helvetica,sans-Serif" font-size="11.00" fill="#000000">_text[2147483647]</text>
<polygon fill="none" stroke="#000000" points="28.5,-466 28.5,-488 253.5,-488 253.5,-466 28.5,-466"/>
<text text-anchor="start" x="48.5" y="-473.1" font-family="Helvetica,sans-Serif" font-size="11.00" fill="#000000">original_record_id</text>
<polygon fill="none" stroke="#000000" points="253.5,-466 253.5,-488 350.5,-488 350.5,-466 253.5,-466"/>
<text text-anchor="start" x="256.5" y="-473.7" font-family="Helvetica,sans-Serif" font-size="11.00" fill="#000000">int4[10]</text>
<polygon fill="none" stroke="#000000" points="28.5,-444 28.5,-466 253.5,-466 253.5,-444 28.5,-444"/>
<text text-anchor="start" x="48.5" y="-451.1" font-family="Helvetica,sans-Serif" font-size="11.00" fill="#000000">original_source_type_code</text>
<polygon fill="none" stroke="#000000" points="253.5,-444 253.5,-466 350.5,-466 350.5,-444 253.5,-444"/>
<text text-anchor="start" x="256.5" y="-451.7" font-family="Helvetica,sans-Serif" font-size="11.00" fill="#000000">bpchar[1]</text>
<polygon fill="none" stroke="#000000" points="28.5,-422 28.5,-444 253.5,-444 253.5,-422 28.5,-422"/>
<text text-anchor="start" x="48.5" y="-429.1" font-family="Helvetica,sans-Serif" font-size="11.00" fill="#000000">record_created_at</text>
<polygon fill="none" stroke="#000000" points="253.5,-422 253.5,-444 350.5,-444 350.5,-422 253.5,-422"/>
<text text-anchor="start" x="256.5" y="-429.7" font-family="Helvetica,sans-Serif" font-size="11.00" fill="#000000">timestamptz[35,6]</text>
<polygon fill="none" stroke="#000000" points="28.5,-400 28.5,-422 253.5,-422 253.5,-400 28.5,-400"/>
<text text-anchor="start" x="48.5" y="-407.1" font-family="Helvetica,sans-Serif" font-size="11.00" fill="#000000">data_quality_flag</text>
<polygon fill="none" stroke="#000000" points="253.5,-400 253.5,-422 350.5,-422 350.5,-400 253.5,-400"/>
<text text-anchor="start" x="256.4468" y="-407.7" font-family="Helvetica,sans-Serif" font-size="11.00" fill="#000000">_text[2147483647]</text>
<polygon fill="#ffffff" stroke="transparent" points="28.5,-381 28.5,-400 115.5,-400 115.5,-381 28.5,-381"/>
<polygon fill="none" stroke="#000000" points="28.5,-381 28.5,-400 115.5,-400 115.5,-381 28.5,-381"/>
<text text-anchor="start" x="31.5" y="-387.1" font-family="Helvetica,sans-Serif" font-size="11.00" fill="#000000">&lt; 0</text>
<polygon fill="#ffffff" stroke="transparent" points="115.5,-381 115.5,-400 253.5,-400 253.5,-381 115.5,-381"/>
<polygon fill="none" stroke="#000000" points="115.5,-381 115.5,-400 253.5,-400 253.5,-381 115.5,-381"/>
<text text-anchor="start" x="184.4791" y="-387.1" font-family="Helvetica,sans-Serif" font-size="11.00" fill="#000000">281,196 rows</text>
<polygon fill="#ffffff" stroke="transparent" points="253.5,-381 253.5,-400 350.5,-400 350.5,-381 253.5,-381"/>
<polygon fill="none" stroke="#000000" points="253.5,-381 253.5,-400 350.5,-400 350.5,-381 253.5,-381"/>
<text text-anchor="start" x="331.9053" y="-387.1" font-family="Helvetica,sans-Serif" font-size="11.00" fill="#000000">0 &gt;</text>
<polygon fill="none" stroke="#000000" stroke-width="2" points="27.5,-380 27.5,-886 351.5,-886 351.5,-380 27.5,-380"/>
</a>
</g>
</g>
<!-- spatial_ref_sys -->
<g id="node3" class="node">
<title>spatial_ref_sys</title>
<g id="a_node3"><a xlink:href="../../tables/spatial_ref_sys.html" xlink:title="spatial_ref_sys" target="_top">
<polygon fill="#ffffff" stroke="transparent" points="91,-908 91,-1064 288,-1064 288,-908 91,-908"/>
<polygon fill="#f5f5f5" stroke="transparent" points="93.5,-1039 93.5,-1062 286.5,-1062 286.5,-1039 93.5,-1039"/>
<polygon fill="none" stroke="#000000" points="93.5,-1039 93.5,-1062 286.5,-1062 286.5,-1039 93.5,-1039"/>
<text text-anchor="start" x="98.5" y="-1047.6" font-family="Helvetica,sans-Serif" font-weight="bold" font-size="11.00" fill="#000000">spatial_ref_sys</text>
<text text-anchor="start" x="251.5437" y="-1047.1" font-family="Helvetica,sans-Serif" font-size="11.00" fill="#000000">[table]</text>
<polygon fill="none" stroke="#000000" points="93.5,-1017 93.5,-1039 213.5,-1039 213.5,-1017 93.5,-1017"/>
<image xlink:href="../../images/primaryKeys.png" width="11px" height="12px" preserveAspectRatio="xMinYMin meet" x="98.5" y="-1034"/>
<text text-anchor="start" x="113.5" y="-1024.1" font-family="Helvetica,sans-Serif" font-size="11.00" fill="#000000">srid</text>
<polygon fill="none" stroke="#000000" points="213.5,-1017 213.5,-1039 286.5,-1039 286.5,-1017 213.5,-1017"/>
<text text-anchor="start" x="216.5" y="-1024.7" font-family="Helvetica,sans-Serif" font-size="11.00" fill="#000000">int4[10]</text>
<polygon fill="none" stroke="#000000" points="93.5,-995 93.5,-1017 213.5,-1017 213.5,-995 93.5,-995"/>
<text text-anchor="start" x="113.5" y="-1002.1" font-family="Helvetica,sans-Serif" font-size="11.00" fill="#000000">auth_name</text>
<polygon fill="none" stroke="#000000" points="213.5,-995 213.5,-1017 286.5,-1017 286.5,-995 213.5,-995"/>
<text text-anchor="start" x="216.5" y="-1002.7" font-family="Helvetica,sans-Serif" font-size="11.00" fill="#000000">varchar[256]</text>
<polygon fill="none" stroke="#000000" points="93.5,-973 93.5,-995 213.5,-995 213.5,-973 93.5,-973"/>
<text text-anchor="start" x="113.5" y="-980.1" font-family="Helvetica,sans-Serif" font-size="11.00" fill="#000000">auth_srid</text>
<polygon fill="none" stroke="#000000" points="213.5,-973 213.5,-995 286.5,-995 286.5,-973 213.5,-973"/>
<text text-anchor="start" x="216.5" y="-980.7" font-family="Helvetica,sans-Serif" font-size="11.00" fill="#000000">int4[10]</text>
<polygon fill="none" stroke="#000000" points="93.5,-951 93.5,-973 213.5,-973 213.5,-951 93.5,-951"/>
<text text-anchor="start" x="113.5" y="-958.1" font-family="Helvetica,sans-Serif" font-size="11.00" fill="#000000">srtext</text>
<polygon fill="none" stroke="#000000" points="213.5,-951 213.5,-973 286.5,-973 286.5,-951 213.5,-951"/>
<text text-anchor="start" x="216.3791" y="-958.7" font-family="Helvetica,sans-Serif" font-size="11.00" fill="#000000">varchar[2048]</text>
<polygon fill="none" stroke="#000000" points="93.5,-929 93.5,-951 213.5,-951 213.5,-929 93.5,-929"/>
<text text-anchor="start" x="113.5" y="-936.1" font-family="Helvetica,sans-Serif" font-size="11.00" fill="#000000">proj4text</text>
<polygon fill="none" stroke="#000000" points="213.5,-929 213.5,-951 286.5,-951 286.5,-929 213.5,-929"/>
<text text-anchor="start" x="216.3791" y="-936.7" font-family="Helvetica,sans-Serif" font-size="11.00" fill="#000000">varchar[2048]</text>
<polygon fill="#ffffff" stroke="transparent" points="93.5,-910 93.5,-929 134.5,-929 134.5,-910 93.5,-910"/>
<polygon fill="none" stroke="#000000" points="93.5,-910 93.5,-929 134.5,-929 134.5,-910 93.5,-910"/>
<text text-anchor="start" x="96.5" y="-916.1" font-family="Helvetica,sans-Serif" font-size="11.00" fill="#000000">&lt; 0</text>
<polygon fill="#ffffff" stroke="transparent" points="134.5,-910 134.5,-929 213.5,-929 213.5,-910 134.5,-910"/>
<polygon fill="none" stroke="#000000" points="134.5,-910 134.5,-929 213.5,-929 213.5,-910 134.5,-910"/>
<text text-anchor="start" x="156.7089" y="-916.1" font-family="Helvetica,sans-Serif" font-size="11.00" fill="#000000">8,500 rows</text>
<polygon fill="#ffffff" stroke="transparent" points="213.5,-910 213.5,-929 286.5,-929 286.5,-910 213.5,-910"/>
<polygon fill="none" stroke="#000000" points="213.5,-910 213.5,-929 286.5,-929 286.5,-910 213.5,-910"/>
<text text-anchor="start" x="267.9053" y="-916.1" font-family="Helvetica,sans-Serif" font-size="11.00" fill="#000000">0 &gt;</text>
<polygon fill="none" stroke="#000000" stroke-width="2" points="92,-909 92,-1063 287,-1063 287,-909 92,-909"/>
</a>
</g>
</g>
<!-- surveillance_alerts -->
<g id="node4" class="node">
<title>surveillance_alerts</title>
<g id="a_node4"><a xlink:href="../../tables/surveillance_alerts.html" xlink:title="surveillance_alerts" target="_top">
<polygon fill="#ffffff" stroke="transparent" points="26,-1085 26,-1417 353,-1417 353,-1085 26,-1085"/>
<polygon fill="#f5f5f5" stroke="transparent" points="28.5,-1392 28.5,-1415 351.5,-1415 351.5,-1392 28.5,-1392"/>
<polygon fill="none" stroke="#000000" points="28.5,-1392 28.5,-1415 351.5,-1415 351.5,-1392 28.5,-1392"/>
<text text-anchor="start" x="33.5" y="-1400.6" font-family="Helvetica,sans-Serif" font-weight="bold" font-size="11.00" fill="#000000">surveillance_alerts</text>
<text text-anchor="start" x="316.5437" y="-1400.1" font-family="Helvetica,sans-Serif" font-size="11.00" fill="#000000">[table]</text>
<polygon fill="none" stroke="#000000" points="28.5,-1370 28.5,-1392 252.5,-1392 252.5,-1370 28.5,-1370"/>
<image xlink:href="../../images/primaryKeys.png" width="11px" height="12px" preserveAspectRatio="xMinYMin meet" x="33.5" y="-1387"/>
<text text-anchor="start" x="48.5" y="-1377.1" font-family="Helvetica,sans-Serif" font-size="11.00" fill="#000000">alert_id</text>
<polygon fill="none" stroke="#000000" points="252.5,-1370 252.5,-1392 351.5,-1392 351.5,-1370 252.5,-1370"/>
<text text-anchor="start" x="255.5" y="-1377.7" font-family="Helvetica,sans-Serif" font-size="11.00" fill="#000000">serial[10]</text>
<polygon fill="none" stroke="#000000" points="28.5,-1348 28.5,-1370 252.5,-1370 252.5,-1348 28.5,-1348"/>
<text text-anchor="start" x="48.5" y="-1355.1" font-family="Helvetica,sans-Serif" font-size="11.00" fill="#000000">anomaly_id</text>
<polygon fill="none" stroke="#000000" points="252.5,-1348 252.5,-1370 351.5,-1370 351.5,-1348 252.5,-1348"/>
<text text-anchor="start" x="255.5" y="-1355.7" font-family="Helvetica,sans-Serif" font-size="11.00" fill="#000000">int4[10]</text>
<polygon fill="none" stroke="#000000" points="28.5,-1326 28.5,-1348 252.5,-1348 252.5,-1326 28.5,-1326"/>
<text text-anchor="start" x="48.5" y="-1333.1" font-family="Helvetica,sans-Serif" font-size="11.00" fill="#000000">alert_level</text>
<polygon fill="none" stroke="#000000" points="252.5,-1326 252.5,-1348 351.5,-1348 351.5,-1326 252.5,-1326"/>
<text text-anchor="start" x="255.5" y="-1333.7" font-family="Helvetica,sans-Serif" font-size="11.00" fill="#000000">varchar[20]</text>
<polygon fill="none" stroke="#000000" points="28.5,-1304 28.5,-1326 252.5,-1326 252.5,-1304 28.5,-1304"/>
<text text-anchor="start" x="48.5" y="-1311.1" font-family="Helvetica,sans-Serif" font-size="11.00" fill="#000000">alert_type</text>
<polygon fill="none" stroke="#000000" points="252.5,-1304 252.5,-1326 351.5,-1326 351.5,-1304 252.5,-1304"/>
<text text-anchor="start" x="255.5" y="-1311.7" font-family="Helvetica,sans-Serif" font-size="11.00" fill="#000000">varchar[100]</text>
<polygon fill="none" stroke="#000000" points="28.5,-1282 28.5,-1304 252.5,-1304 252.5,-1282 28.5,-1282"/>
<text text-anchor="start" x="48.5" y="-1289.1" font-family="Helvetica,sans-Serif" font-size="11.00" fill="#000000">requires_immediate_attention</text>
<polygon fill="none" stroke="#000000" points="252.5,-1282 252.5,-1304 351.5,-1304 351.5,-1282 252.5,-1282"/>
<text text-anchor="start" x="255.5" y="-1289.7" font-family="Helvetica,sans-Serif" font-size="11.00" fill="#000000">bool[1]</text>
<polygon fill="none" stroke="#000000" points="28.5,-1260 28.5,-1282 252.5,-1282 252.5,-1260 28.5,-1260"/>
<text text-anchor="start" x="48.5" y="-1267.1" font-family="Helvetica,sans-Serif" font-size="11.00" fill="#000000">alert_title</text>
<polygon fill="none" stroke="#000000" points="252.5,-1260 252.5,-1282 351.5,-1282 351.5,-1260 252.5,-1260"/>
<text text-anchor="start" x="255.5" y="-1267.7" font-family="Helvetica,sans-Serif" font-size="11.00" fill="#000000">varchar[255]</text>
<polygon fill="none" stroke="#000000" points="28.5,-1238 28.5,-1260 252.5,-1260 252.5,-1238 28.5,-1238"/>
<text text-anchor="start" x="48.5" y="-1245.1" font-family="Helvetica,sans-Serif" font-size="11.00" fill="#000000">alert_status</text>
<polygon fill="none" stroke="#000000" points="252.5,-1238 252.5,-1260 351.5,-1260 351.5,-1238 252.5,-1238"/>
<text text-anchor="start" x="255.5" y="-1245.7" font-family="Helvetica,sans-Serif" font-size="11.00" fill="#000000">varchar[20]</text>
<polygon fill="none" stroke="#000000" points="28.5,-1216 28.5,-1238 252.5,-1238 252.5,-1216 28.5,-1216"/>
<text text-anchor="start" x="48.5" y="-1223.1" font-family="Helvetica,sans-Serif" font-size="11.00" fill="#000000">confidence_score</text>
<polygon fill="none" stroke="#000000" points="252.5,-1216 252.5,-1238 351.5,-1238 351.5,-1216 252.5,-1216"/>
<text text-anchor="start" x="255.5" y="-1223.7" font-family="Helvetica,sans-Serif" font-size="11.00" fill="#000000">numeric[3,2]</text>
<polygon fill="none" stroke="#000000" points="28.5,-1194 28.5,-1216 252.5,-1216 252.5,-1194 28.5,-1194"/>
<text text-anchor="start" x="48.5" y="-1201.1" font-family="Helvetica,sans-Serif" font-size="11.00" fill="#000000">record_created_at</text>
<polygon fill="none" stroke="#000000" points="252.5,-1194 252.5,-1216 351.5,-1216 351.5,-1194 252.5,-1194"/>
<text text-anchor="start" x="255.5" y="-1201.7" font-family="Helvetica,sans-Serif" font-size="11.00" fill="#000000">timestamp[29,6]</text>
<polygon fill="none" stroke="#000000" points="28.5,-1172 28.5,-1194 252.5,-1194 252.5,-1172 28.5,-1172"/>
<text text-anchor="start" x="48.5" y="-1179.1" font-family="Helvetica,sans-Serif" font-size="11.00" fill="#000000">description</text>
<polygon fill="none" stroke="#000000" points="252.5,-1172 252.5,-1194 351.5,-1194 351.5,-1172 252.5,-1172"/>
<text text-anchor="start" x="255.5" y="-1179.7" font-family="Helvetica,sans-Serif" font-size="11.00" fill="#000000">text[2147483647]</text>
<polygon fill="none" stroke="#000000" points="28.5,-1150 28.5,-1172 252.5,-1172 252.5,-1150 28.5,-1150"/>
<text text-anchor="start" x="48.5" y="-1157.1" font-family="Helvetica,sans-Serif" font-size="11.00" fill="#000000">evidence_summary</text>
<polygon fill="none" stroke="#000000" points="252.5,-1150 252.5,-1172 351.5,-1172 351.5,-1150 252.5,-1150"/>
<text text-anchor="start" x="255.2258" y="-1157.7" font-family="Helvetica,sans-Serif" font-size="11.00" fill="#000000">jsonb[2147483647]</text>
<polygon fill="none" stroke="#000000" points="28.5,-1128 28.5,-1150 252.5,-1150 252.5,-1128 28.5,-1128"/>
<text text-anchor="start" x="48.5" y="-1135.1" font-family="Helvetica,sans-Serif" font-size="11.00" fill="#000000">assigned_to</text>
<polygon fill="none" stroke="#000000" points="252.5,-1128 252.5,-1150 351.5,-1150 351.5,-1128 252.5,-1128"/>
<text text-anchor="start" x="255.5" y="-1135.7" font-family="Helvetica,sans-Serif" font-size="11.00" fill="#000000">varchar[100]</text>
<polygon fill="none" stroke="#000000" points="28.5,-1106 28.5,-1128 252.5,-1128 252.5,-1106 28.5,-1106"/>
<text text-anchor="start" x="48.5" y="-1113.1" font-family="Helvetica,sans-Serif" font-size="11.00" fill="#000000">updated_at</text>
<polygon fill="none" stroke="#000000" points="252.5,-1106 252.5,-1128 351.5,-1128 351.5,-1106 252.5,-1106"/>
<text text-anchor="start" x="255.5" y="-1113.7" font-family="Helvetica,sans-Serif" font-size="11.00" fill="#000000">timestamp[29,6]</text>
<polygon fill="#ffffff" stroke="transparent" points="28.5,-1087 28.5,-1106 144.5,-1106 144.5,-1087 28.5,-1087"/>
<polygon fill="none" stroke="#000000" points="28.5,-1087 28.5,-1106 144.5,-1106 144.5,-1087 28.5,-1087"/>
<text text-anchor="start" x="31.5" y="-1093.1" font-family="Helvetica,sans-Serif" font-size="11.00" fill="#000000">&lt; 0</text>
<polygon fill="#ffffff" stroke="transparent" points="144.5,-1087 144.5,-1106 252.5,-1106 252.5,-1087 144.5,-1087"/>
<polygon fill="none" stroke="#000000" points="144.5,-1087 144.5,-1106 252.5,-1106 252.5,-1087 144.5,-1087"/>
<text text-anchor="start" x="243.3862" y="-1093.1" font-family="Helvetica,sans-Serif" font-size="11.00" fill="#000000"> &#160;</text>
<polygon fill="#ffffff" stroke="transparent" points="252.5,-1087 252.5,-1106 351.5,-1106 351.5,-1087 252.5,-1087"/>
<polygon fill="none" stroke="#000000" points="252.5,-1087 252.5,-1106 351.5,-1106 351.5,-1087 252.5,-1087"/>
<text text-anchor="start" x="332.9053" y="-1093.1" font-family="Helvetica,sans-Serif" font-size="11.00" fill="#000000">0 &gt;</text>
<polygon fill="none" stroke="#000000" stroke-width="2" points="27,-1086 27,-1416 352,-1416 352,-1086 27,-1086"/>
</a>
</g>
</g>
</g>
</svg>
