<?xml version="1.0" encoding="UTF-8" standalone="no"?>
<!DOCTYPE svg PUBLIC "-//W3C//DTD SVG 1.1//EN"
 "http://www.w3.org/Graphics/SVG/1.1/DTD/svg11.dtd">
<!-- Generated by graphviz version 2.40.1 (20161225.0304)
 -->
<!-- Title: largeImpliedRelationshipsDiagram Pages: 1 -->
<svg width="383pt" height="425pt"
 viewBox="0.00 0.00 383.00 425.20" xmlns="http://www.w3.org/2000/svg" xmlns:xlink="http://www.w3.org/1999/xlink">
<g id="graph0" class="graph" transform="scale(1 1) rotate(0) translate(4 421.2)">
<title>largeImpliedRelationshipsDiagram</title>
<polygon fill="#ffffff" stroke="transparent" points="-4,4 -4,-421.2 379,-421.2 379,4 -4,4"/>
<text text-anchor="middle" x="72.4936" y="-7.3" font-family="Helvetica,sans-Serif" font-size="11.00" fill="#000000">Generated by SchemaSpy</text>
<!-- spatial_ref_sys -->
<g id="node1" class="node">
<title>spatial_ref_sys</title>
<g id="a_node1"><a xlink:href="../../tables/spatial_ref_sys.html" xlink:title="spatial_ref_sys" target="_top">
<polygon fill="#ffffff" stroke="transparent" points="8,-51.7 8,-203.7 146,-203.7 146,-51.7 8,-51.7"/>
<polygon fill="#f5f5f5" stroke="transparent" points="8,-180.7 8,-203.7 146,-203.7 146,-180.7 8,-180.7"/>
<polygon fill="none" stroke="#000000" points="8,-180.7 8,-203.7 146,-203.7 146,-180.7 8,-180.7"/>
<text text-anchor="start" x="13" y="-189.3" font-family="Helvetica,sans-Serif" font-weight="bold" font-size="11.00" fill="#000000">spatial_ref_sys</text>
<text text-anchor="start" x="111.5219" y="-188.8" font-family="Helvetica,sans-Serif" font-size="11.00" fill="#000000">[table]</text>
<polygon fill="none" stroke="#000000" points="8,-158.7 8,-180.7 146,-180.7 146,-158.7 8,-158.7"/>
<image xlink:href="../../images/primaryKeys.png" width="11px" height="12px" preserveAspectRatio="xMinYMin meet" x="13" y="-175.7"/>
<text text-anchor="start" x="37" y="-165.8" font-family="Helvetica,sans-Serif" font-size="11.00" fill="#000000">srid</text>
<polygon fill="none" stroke="#000000" points="8,-136.7 8,-158.7 146,-158.7 146,-136.7 8,-136.7"/>
<text text-anchor="start" x="37" y="-143.8" font-family="Helvetica,sans-Serif" font-size="11.00" fill="#000000">auth_name</text>
<polygon fill="none" stroke="#000000" points="8,-114.7 8,-136.7 146,-136.7 146,-114.7 8,-114.7"/>
<text text-anchor="start" x="37" y="-121.8" font-family="Helvetica,sans-Serif" font-size="11.00" fill="#000000">auth_srid</text>
<polygon fill="none" stroke="#000000" points="8,-92.7 8,-114.7 146,-114.7 146,-92.7 8,-92.7"/>
<text text-anchor="start" x="37" y="-99.8" font-family="Helvetica,sans-Serif" font-size="11.00" fill="#000000">srtext</text>
<polygon fill="none" stroke="#000000" points="8,-70.7 8,-92.7 146,-92.7 146,-70.7 8,-70.7"/>
<text text-anchor="start" x="37" y="-77.8" font-family="Helvetica,sans-Serif" font-size="11.00" fill="#000000">proj4text</text>
<polygon fill="#ffffff" stroke="transparent" points="8,-51.7 8,-70.7 47,-70.7 47,-51.7 8,-51.7"/>
<polygon fill="none" stroke="#000000" points="8,-51.7 8,-70.7 47,-70.7 47,-51.7 8,-51.7"/>
<text text-anchor="start" x="11" y="-57.8" font-family="Helvetica,sans-Serif" font-size="11.00" fill="#000000"> &#160;</text>
<polygon fill="#ffffff" stroke="transparent" points="47,-51.7 47,-70.7 120,-70.7 120,-51.7 47,-51.7"/>
<polygon fill="none" stroke="#000000" points="47,-51.7 47,-70.7 120,-70.7 120,-51.7 47,-51.7"/>
<text text-anchor="start" x="63.2089" y="-57.8" font-family="Helvetica,sans-Serif" font-size="11.00" fill="#000000">8,500 rows</text>
<polygon fill="#ffffff" stroke="transparent" points="120,-51.7 120,-70.7 146,-70.7 146,-51.7 120,-51.7"/>
<polygon fill="none" stroke="#000000" points="120,-51.7 120,-70.7 146,-70.7 146,-51.7 120,-51.7"/>
<text text-anchor="start" x="136.8862" y="-57.8" font-family="Helvetica,sans-Serif" font-size="11.00" fill="#000000"> &#160;</text>
</a>
</g>
</g>
<!-- geography_columns -->
<g id="node2" class="node">
<title>geography_columns</title>
<g id="a_node2"><a xlink:href="../../tables/geography_columns.html" xlink:title="geography_columns" target="_top">
<polygon fill="#ffffff" stroke="transparent" points="195,-236.2 195,-413.2 367,-413.2 367,-236.2 195,-236.2"/>
<polygon fill="#f5f5f5" stroke="transparent" points="195,-389.7 195,-412.7 367,-412.7 367,-389.7 195,-389.7"/>
<polygon fill="none" stroke="#000000" points="195,-389.7 195,-412.7 367,-412.7 367,-389.7 195,-389.7"/>
<text text-anchor="start" x="200" y="-398.3" font-family="Helvetica,sans-Serif" font-weight="bold" font-size="11.00" fill="#000000">geography_columns</text>
<text text-anchor="start" x="333.9448" y="-397.8" font-family="Helvetica,sans-Serif" font-size="11.00" fill="#000000">[view]</text>
<polygon fill="none" stroke="#000000" points="195,-367.7 195,-389.7 367,-389.7 367,-367.7 195,-367.7"/>
<text text-anchor="start" x="222" y="-374.8" font-family="Helvetica,sans-Serif" font-size="11.00" fill="#000000">f_table_catalog</text>
<polygon fill="none" stroke="#000000" points="195,-345.7 195,-367.7 367,-367.7 367,-345.7 195,-345.7"/>
<text text-anchor="start" x="222" y="-352.8" font-family="Helvetica,sans-Serif" font-size="11.00" fill="#000000">f_table_schema</text>
<polygon fill="none" stroke="#000000" points="195,-323.7 195,-345.7 367,-345.7 367,-323.7 195,-323.7"/>
<text text-anchor="start" x="222" y="-330.8" font-family="Helvetica,sans-Serif" font-size="11.00" fill="#000000">f_table_name</text>
<polygon fill="none" stroke="#000000" points="195,-301.7 195,-323.7 367,-323.7 367,-301.7 195,-301.7"/>
<text text-anchor="start" x="222" y="-308.8" font-family="Helvetica,sans-Serif" font-size="11.00" fill="#000000">f_geography_column</text>
<polygon fill="none" stroke="#000000" points="195,-279.7 195,-301.7 367,-301.7 367,-279.7 195,-279.7"/>
<text text-anchor="start" x="222" y="-286.8" font-family="Helvetica,sans-Serif" font-size="11.00" fill="#000000">coord_dimension</text>
<polygon fill="none" stroke="#000000" points="195,-257.7 195,-279.7 367,-279.7 367,-257.7 195,-257.7"/>
<image xlink:href="../../images/foreignKeys.png" width="11px" height="12px" preserveAspectRatio="xMinYMin meet" x="200" y="-274.7"/>
<text text-anchor="start" x="222" y="-264.8" font-family="Helvetica,sans-Serif" font-size="11.00" fill="#000000">srid</text>
<polygon fill="none" stroke="#000000" points="195,-235.7 195,-257.7 367,-257.7 367,-235.7 195,-235.7"/>
<text text-anchor="start" x="222" y="-242.8" font-family="Helvetica,sans-Serif" font-size="11.00" fill="#000000">type</text>
</a>
</g>
</g>
<!-- geography_columns&#45;&gt;spatial_ref_sys -->
<g id="edge1" class="edge">
<title>geography_columns:w&#45;&gt;spatial_ref_sys:e</title>
<path fill="none" stroke="#000000" stroke-dasharray="5,2" d="M181.1394,-264.6965C156.3773,-246.1751 189.1495,-169.7 146,-169.7"/>
<polygon fill="#000000" stroke="#000000" points="187.3142,-266.48 194.001,-272.1586 191.1571,-267.59 195,-268.7 195,-268.7 195,-268.7 191.1571,-267.59 195.999,-265.2414 187.3142,-266.48 187.3142,-266.48"/>
<ellipse fill="none" stroke="#000000" cx="184.2399" cy="-265.592" rx="3.2" ry="3.2"/>
</g>
<!-- geometry_columns -->
<g id="node3" class="node">
<title>geometry_columns</title>
<g id="a_node3"><a xlink:href="../../tables/geometry_columns.html" xlink:title="geometry_columns" target="_top">
<polygon fill="#ffffff" stroke="transparent" points="198.5,-38.2 198.5,-215.2 363.5,-215.2 363.5,-38.2 198.5,-38.2"/>
<polygon fill="#f5f5f5" stroke="transparent" points="199,-191.7 199,-214.7 364,-214.7 364,-191.7 199,-191.7"/>
<polygon fill="none" stroke="#000000" points="199,-191.7 199,-214.7 364,-214.7 364,-191.7 199,-191.7"/>
<text text-anchor="start" x="204" y="-200.3" font-family="Helvetica,sans-Serif" font-weight="bold" font-size="11.00" fill="#000000">geometry_columns</text>
<text text-anchor="start" x="330.9448" y="-199.8" font-family="Helvetica,sans-Serif" font-size="11.00" fill="#000000">[view]</text>
<polygon fill="none" stroke="#000000" points="199,-169.7 199,-191.7 364,-191.7 364,-169.7 199,-169.7"/>
<text text-anchor="start" x="226" y="-176.8" font-family="Helvetica,sans-Serif" font-size="11.00" fill="#000000">f_table_catalog</text>
<polygon fill="none" stroke="#000000" points="199,-147.7 199,-169.7 364,-169.7 364,-147.7 199,-147.7"/>
<text text-anchor="start" x="226" y="-154.8" font-family="Helvetica,sans-Serif" font-size="11.00" fill="#000000">f_table_schema</text>
<polygon fill="none" stroke="#000000" points="199,-125.7 199,-147.7 364,-147.7 364,-125.7 199,-125.7"/>
<text text-anchor="start" x="226" y="-132.8" font-family="Helvetica,sans-Serif" font-size="11.00" fill="#000000">f_table_name</text>
<polygon fill="none" stroke="#000000" points="199,-103.7 199,-125.7 364,-125.7 364,-103.7 199,-103.7"/>
<text text-anchor="start" x="226" y="-110.8" font-family="Helvetica,sans-Serif" font-size="11.00" fill="#000000">f_geometry_column</text>
<polygon fill="none" stroke="#000000" points="199,-81.7 199,-103.7 364,-103.7 364,-81.7 199,-81.7"/>
<text text-anchor="start" x="226" y="-88.8" font-family="Helvetica,sans-Serif" font-size="11.00" fill="#000000">coord_dimension</text>
<polygon fill="none" stroke="#000000" points="199,-59.7 199,-81.7 364,-81.7 364,-59.7 199,-59.7"/>
<image xlink:href="../../images/foreignKeys.png" width="11px" height="12px" preserveAspectRatio="xMinYMin meet" x="204" y="-76.7"/>
<text text-anchor="start" x="226" y="-66.8" font-family="Helvetica,sans-Serif" font-size="11.00" fill="#000000">srid</text>
<polygon fill="none" stroke="#000000" points="199,-37.7 199,-59.7 364,-59.7 364,-37.7 199,-37.7"/>
<text text-anchor="start" x="226" y="-44.8" font-family="Helvetica,sans-Serif" font-size="11.00" fill="#000000">type</text>
</a>
</g>
</g>
<!-- geometry_columns&#45;&gt;spatial_ref_sys -->
<g id="edge2" class="edge">
<title>geometry_columns:w&#45;&gt;spatial_ref_sys:e</title>
<path fill="none" stroke="#000000" stroke-dasharray="5,2" d="M184.7807,-74.7035C159.0116,-93.2249 189.8649,-169.7 146,-169.7"/>
<polygon fill="#000000" stroke="#000000" points="191.2994,-72.8682 199.9757,-74.1653 195.1497,-71.7841 199,-70.7 199,-70.7 199,-70.7 195.1497,-71.7841 198.0243,-67.2347 191.2994,-72.8682 191.2994,-72.8682"/>
<ellipse fill="none" stroke="#000000" cx="188.2192" cy="-73.7355" rx="3.2" ry="3.2"/>
</g>
</g>
</svg>
