<?xml version="1.0" encoding="UTF-8" standalone="no"?>
<!DOCTYPE svg PUBLIC "-//W3C//DTD SVG 1.1//EN"
 "http://www.w3.org/Graphics/SVG/1.1/DTD/svg11.dtd">
<!-- Generated by graphviz version 2.40.1 (20161225.0304)
 -->
<!-- Title: compactImpliedRelationshipsDiagram Pages: 1 -->
<svg width="383pt" height="199pt"
 viewBox="0.00 0.00 383.00 199.20" xmlns="http://www.w3.org/2000/svg" xmlns:xlink="http://www.w3.org/1999/xlink">
<g id="graph0" class="graph" transform="scale(1 1) rotate(0) translate(4 195.2)">
<title>compactImpliedRelationshipsDiagram</title>
<polygon fill="#ffffff" stroke="transparent" points="-4,4 -4,-195.2 379,-195.2 379,4 -4,4"/>
<text text-anchor="middle" x="72.4936" y="-7.3" font-family="Helvetica,sans-Serif" font-size="11.00" fill="#000000">Generated by SchemaSpy</text>
<!-- spatial_ref_sys -->
<g id="node1" class="node">
<title>spatial_ref_sys</title>
<g id="a_node1"><a xlink:href="../../tables/spatial_ref_sys.html" xlink:title="spatial_ref_sys" target="_top">
<polygon fill="#ffffff" stroke="transparent" points="8,-61.7 8,-144.7 146,-144.7 146,-61.7 8,-61.7"/>
<polygon fill="#f5f5f5" stroke="transparent" points="8,-121.2 8,-144.2 146,-144.2 146,-121.2 8,-121.2"/>
<polygon fill="none" stroke="#000000" points="8,-121.2 8,-144.2 146,-144.2 146,-121.2 8,-121.2"/>
<text text-anchor="start" x="13" y="-129.8" font-family="Helvetica,sans-Serif" font-weight="bold" font-size="11.00" fill="#000000">spatial_ref_sys</text>
<text text-anchor="start" x="111.5219" y="-129.3" font-family="Helvetica,sans-Serif" font-size="11.00" fill="#000000">[table]</text>
<polygon fill="none" stroke="#000000" points="8,-99.2 8,-121.2 146,-121.2 146,-99.2 8,-99.2"/>
<image xlink:href="../../images/primaryKeys.png" width="11px" height="12px" preserveAspectRatio="xMinYMin meet" x="13" y="-116.2"/>
<text text-anchor="start" x="37" y="-106.3" font-family="Helvetica,sans-Serif" font-size="11.00" fill="#000000">srid</text>
<polygon fill="none" stroke="#000000" points="8,-80.2 8,-99.2 146,-99.2 146,-80.2 8,-80.2"/>
<text text-anchor="start" x="11" y="-86.3" font-family="Helvetica,sans-Serif" font-size="11.00" fill="#000000">...</text>
<polygon fill="#ffffff" stroke="transparent" points="8,-61.2 8,-80.2 47,-80.2 47,-61.2 8,-61.2"/>
<polygon fill="none" stroke="#000000" points="8,-61.2 8,-80.2 47,-80.2 47,-61.2 8,-61.2"/>
<text text-anchor="start" x="11" y="-67.3" font-family="Helvetica,sans-Serif" font-size="11.00" fill="#000000"> &#160;</text>
<polygon fill="#ffffff" stroke="transparent" points="47,-61.2 47,-80.2 120,-80.2 120,-61.2 47,-61.2"/>
<polygon fill="none" stroke="#000000" points="47,-61.2 47,-80.2 120,-80.2 120,-61.2 47,-61.2"/>
<text text-anchor="start" x="63.2089" y="-67.3" font-family="Helvetica,sans-Serif" font-size="11.00" fill="#000000">8,500 rows</text>
<polygon fill="#ffffff" stroke="transparent" points="120,-61.2 120,-80.2 146,-80.2 146,-61.2 120,-61.2"/>
<polygon fill="none" stroke="#000000" points="120,-61.2 120,-80.2 146,-80.2 146,-61.2 120,-61.2"/>
<text text-anchor="start" x="136.8862" y="-67.3" font-family="Helvetica,sans-Serif" font-size="11.00" fill="#000000"> &#160;</text>
</a>
</g>
</g>
<!-- geography_columns -->
<g id="node2" class="node">
<title>geography_columns</title>
<g id="a_node2"><a xlink:href="../../tables/geography_columns.html" xlink:title="geography_columns" target="_top">
<polygon fill="#ffffff" stroke="transparent" points="195,-123.2 195,-187.2 367,-187.2 367,-123.2 195,-123.2"/>
<polygon fill="#f5f5f5" stroke="transparent" points="195,-164.2 195,-187.2 367,-187.2 367,-164.2 195,-164.2"/>
<polygon fill="none" stroke="#000000" points="195,-164.2 195,-187.2 367,-187.2 367,-164.2 195,-164.2"/>
<text text-anchor="start" x="200" y="-172.8" font-family="Helvetica,sans-Serif" font-weight="bold" font-size="11.00" fill="#000000">geography_columns</text>
<text text-anchor="start" x="333.9448" y="-172.3" font-family="Helvetica,sans-Serif" font-size="11.00" fill="#000000">[view]</text>
<polygon fill="none" stroke="#000000" points="195,-142.2 195,-164.2 367,-164.2 367,-142.2 195,-142.2"/>
<image xlink:href="../../images/foreignKeys.png" width="11px" height="12px" preserveAspectRatio="xMinYMin meet" x="200" y="-159.2"/>
<text text-anchor="start" x="222" y="-149.3" font-family="Helvetica,sans-Serif" font-size="11.00" fill="#000000">srid</text>
<polygon fill="none" stroke="#000000" points="195,-123.2 195,-142.2 367,-142.2 367,-123.2 195,-123.2"/>
<text text-anchor="start" x="198" y="-129.3" font-family="Helvetica,sans-Serif" font-size="11.00" fill="#000000">...</text>
</a>
</g>
</g>
<!-- geography_columns&#45;&gt;spatial_ref_sys -->
<g id="edge1" class="edge">
<title>geography_columns:w&#45;&gt;spatial_ref_sys:e</title>
<path fill="none" stroke="#000000" stroke-dasharray="5,2" d="M181.015,-148.2674C168.1135,-136.9726 168.8625,-110.2 146,-110.2"/>
<polygon fill="#000000" stroke="#000000" points="187.4555,-150.539 193.8025,-156.595 191.2278,-151.8695 195,-153.2 195,-153.2 195,-153.2 191.2278,-151.8695 196.1975,-149.805 187.4555,-150.539 187.4555,-150.539"/>
<ellipse fill="none" stroke="#000000" cx="184.4377" cy="-149.4745" rx="3.2" ry="3.2"/>
</g>
<!-- geometry_columns -->
<g id="node3" class="node">
<title>geometry_columns</title>
<g id="a_node3"><a xlink:href="../../tables/geometry_columns.html" xlink:title="geometry_columns" target="_top">
<polygon fill="#ffffff" stroke="transparent" points="198.5,-38.2 198.5,-102.2 363.5,-102.2 363.5,-38.2 198.5,-38.2"/>
<polygon fill="#f5f5f5" stroke="transparent" points="199,-79.2 199,-102.2 364,-102.2 364,-79.2 199,-79.2"/>
<polygon fill="none" stroke="#000000" points="199,-79.2 199,-102.2 364,-102.2 364,-79.2 199,-79.2"/>
<text text-anchor="start" x="204" y="-87.8" font-family="Helvetica,sans-Serif" font-weight="bold" font-size="11.00" fill="#000000">geometry_columns</text>
<text text-anchor="start" x="330.9448" y="-87.3" font-family="Helvetica,sans-Serif" font-size="11.00" fill="#000000">[view]</text>
<polygon fill="none" stroke="#000000" points="199,-57.2 199,-79.2 364,-79.2 364,-57.2 199,-57.2"/>
<image xlink:href="../../images/foreignKeys.png" width="11px" height="12px" preserveAspectRatio="xMinYMin meet" x="204" y="-74.2"/>
<text text-anchor="start" x="226" y="-64.3" font-family="Helvetica,sans-Serif" font-size="11.00" fill="#000000">srid</text>
<polygon fill="none" stroke="#000000" points="199,-38.2 199,-57.2 364,-57.2 364,-38.2 199,-38.2"/>
<text text-anchor="start" x="202" y="-44.3" font-family="Helvetica,sans-Serif" font-size="11.00" fill="#000000">...</text>
</a>
</g>
</g>
<!-- geometry_columns&#45;&gt;spatial_ref_sys -->
<g id="edge2" class="edge">
<title>geometry_columns:w&#45;&gt;spatial_ref_sys:e</title>
<path fill="none" stroke="#000000" stroke-dasharray="5,2" d="M185.089,-72.3807C170.3046,-83.0041 170.185,-110.2 146,-110.2"/>
<polygon fill="#000000" stroke="#000000" points="191.3385,-70.5025 200.0361,-71.6477 195.1693,-69.3513 199,-68.2 199,-68.2 199,-68.2 195.1693,-69.3513 197.9639,-64.7523 191.3385,-70.5025 191.3385,-70.5025"/>
<ellipse fill="none" stroke="#000000" cx="188.2739" cy="-71.4236" rx="3.2" ry="3.2"/>
</g>
</g>
</svg>
