<?xml version="1.0" encoding="UTF-8" standalone="no"?>
<!DOCTYPE svg PUBLIC "-//W3C//DTD SVG 1.1//EN"
 "http://www.w3.org/Graphics/SVG/1.1/DTD/svg11.dtd">
<!-- Generated by graphviz version 2.40.1 (20161225.0304)
 -->
<!-- Title: twoDegreesRelationshipsDiagramImplied Pages: 1 -->
<svg width="474pt" height="295pt"
 viewBox="0.00 0.00 474.00 294.70" xmlns="http://www.w3.org/2000/svg" xmlns:xlink="http://www.w3.org/1999/xlink">
<g id="graph0" class="graph" transform="scale(1 1) rotate(0) translate(4 290.7)">
<title>twoDegreesRelationshipsDiagramImplied</title>
<polygon fill="#ffffff" stroke="transparent" points="-4,4 -4,-290.7 470,-290.7 470,4 -4,4"/>
<text text-anchor="middle" x="72.4936" y="-7.3" font-family="Helvetica,sans-Serif" font-size="11.00" fill="#000000">Generated by SchemaSpy</text>
<!-- geography_columns -->
<g id="node1" class="node">
<title>geography_columns</title>
<g id="a_node1"><a xlink:href="../../tables/geography_columns.html" xlink:title="geography_columns" target="_top">
<polygon fill="#ffffff" stroke="transparent" points="195,-101.7 195,-282.7 458,-282.7 458,-101.7 195,-101.7"/>
<polygon fill="#f5f5f5" stroke="transparent" points="197.5,-257.2 197.5,-280.2 456.5,-280.2 456.5,-257.2 197.5,-257.2"/>
<polygon fill="none" stroke="#000000" points="197.5,-257.2 197.5,-280.2 456.5,-280.2 456.5,-257.2 197.5,-257.2"/>
<text text-anchor="start" x="202.5" y="-265.8" font-family="Helvetica,sans-Serif" font-weight="bold" font-size="11.00" fill="#000000">geography_columns</text>
<text text-anchor="start" x="423.3895" y="-265.3" font-family="Helvetica,sans-Serif" font-size="11.00" fill="#000000">[view]</text>
<polygon fill="none" stroke="#000000" points="197.5,-235.2 197.5,-257.2 356.5,-257.2 356.5,-235.2 197.5,-235.2"/>
<text text-anchor="start" x="217.5" y="-242.3" font-family="Helvetica,sans-Serif" font-size="11.00" fill="#000000">f_table_catalog</text>
<polygon fill="none" stroke="#000000" points="356.5,-235.2 356.5,-257.2 456.5,-257.2 456.5,-235.2 356.5,-235.2"/>
<text text-anchor="start" x="359.1153" y="-242.9" font-family="Helvetica,sans-Serif" font-size="11.00" fill="#000000">name[2147483647]</text>
<polygon fill="none" stroke="#000000" points="197.5,-213.2 197.5,-235.2 356.5,-235.2 356.5,-213.2 197.5,-213.2"/>
<text text-anchor="start" x="217.5" y="-220.3" font-family="Helvetica,sans-Serif" font-size="11.00" fill="#000000">f_table_schema</text>
<polygon fill="none" stroke="#000000" points="356.5,-213.2 356.5,-235.2 456.5,-235.2 456.5,-213.2 356.5,-213.2"/>
<text text-anchor="start" x="359.1153" y="-220.9" font-family="Helvetica,sans-Serif" font-size="11.00" fill="#000000">name[2147483647]</text>
<polygon fill="none" stroke="#000000" points="197.5,-191.2 197.5,-213.2 356.5,-213.2 356.5,-191.2 197.5,-191.2"/>
<text text-anchor="start" x="217.5" y="-198.3" font-family="Helvetica,sans-Serif" font-size="11.00" fill="#000000">f_table_name</text>
<polygon fill="none" stroke="#000000" points="356.5,-191.2 356.5,-213.2 456.5,-213.2 456.5,-191.2 356.5,-191.2"/>
<text text-anchor="start" x="359.1153" y="-198.9" font-family="Helvetica,sans-Serif" font-size="11.00" fill="#000000">name[2147483647]</text>
<polygon fill="none" stroke="#000000" points="197.5,-169.2 197.5,-191.2 356.5,-191.2 356.5,-169.2 197.5,-169.2"/>
<text text-anchor="start" x="217.5" y="-176.3" font-family="Helvetica,sans-Serif" font-size="11.00" fill="#000000">f_geography_column</text>
<polygon fill="none" stroke="#000000" points="356.5,-169.2 356.5,-191.2 456.5,-191.2 456.5,-169.2 356.5,-169.2"/>
<text text-anchor="start" x="359.1153" y="-176.9" font-family="Helvetica,sans-Serif" font-size="11.00" fill="#000000">name[2147483647]</text>
<polygon fill="none" stroke="#000000" points="197.5,-147.2 197.5,-169.2 356.5,-169.2 356.5,-147.2 197.5,-147.2"/>
<text text-anchor="start" x="217.5" y="-154.3" font-family="Helvetica,sans-Serif" font-size="11.00" fill="#000000">coord_dimension</text>
<polygon fill="none" stroke="#000000" points="356.5,-147.2 356.5,-169.2 456.5,-169.2 456.5,-147.2 356.5,-147.2"/>
<text text-anchor="start" x="359.5" y="-154.9" font-family="Helvetica,sans-Serif" font-size="11.00" fill="#000000">int4[10]</text>
<polygon fill="none" stroke="#000000" points="197.5,-125.2 197.5,-147.2 356.5,-147.2 356.5,-125.2 197.5,-125.2"/>
<image xlink:href="../../images/foreignKeys.png" width="11px" height="12px" preserveAspectRatio="xMinYMin meet" x="202.5" y="-142.2"/>
<text text-anchor="start" x="217.5" y="-132.3" font-family="Helvetica,sans-Serif" font-size="11.00" fill="#000000">srid</text>
<polygon fill="none" stroke="#000000" points="356.5,-125.2 356.5,-147.2 456.5,-147.2 456.5,-125.2 356.5,-125.2"/>
<text text-anchor="start" x="359.5" y="-132.9" font-family="Helvetica,sans-Serif" font-size="11.00" fill="#000000">int4[10]</text>
<polygon fill="none" stroke="#000000" points="197.5,-103.2 197.5,-125.2 356.5,-125.2 356.5,-103.2 197.5,-103.2"/>
<text text-anchor="start" x="217.5" y="-110.3" font-family="Helvetica,sans-Serif" font-size="11.00" fill="#000000">type</text>
<polygon fill="none" stroke="#000000" points="356.5,-103.2 356.5,-125.2 456.5,-125.2 456.5,-103.2 356.5,-103.2"/>
<text text-anchor="start" x="359.5" y="-110.9" font-family="Helvetica,sans-Serif" font-size="11.00" fill="#000000">text[2147483647]</text>
<polygon fill="none" stroke="#000000" stroke-width="2" points="196,-102.7 196,-281.7 457,-281.7 457,-102.7 196,-102.7"/>
</a>
</g>
</g>
<!-- spatial_ref_sys -->
<g id="node2" class="node">
<title>spatial_ref_sys</title>
<g id="a_node2"><a xlink:href="../../tables/spatial_ref_sys.html" xlink:title="spatial_ref_sys" target="_top">
<polygon fill="#ffffff" stroke="transparent" points="8,-42.7 8,-125.7 146,-125.7 146,-42.7 8,-42.7"/>
<polygon fill="#f5f5f5" stroke="transparent" points="8,-102.2 8,-125.2 146,-125.2 146,-102.2 8,-102.2"/>
<polygon fill="none" stroke="#000000" points="8,-102.2 8,-125.2 146,-125.2 146,-102.2 8,-102.2"/>
<text text-anchor="start" x="13" y="-110.8" font-family="Helvetica,sans-Serif" font-weight="bold" font-size="11.00" fill="#000000">spatial_ref_sys</text>
<text text-anchor="start" x="111.5219" y="-110.3" font-family="Helvetica,sans-Serif" font-size="11.00" fill="#000000">[table]</text>
<polygon fill="none" stroke="#000000" points="8,-80.2 8,-102.2 146,-102.2 146,-80.2 8,-80.2"/>
<image xlink:href="../../images/primaryKeys.png" width="11px" height="12px" preserveAspectRatio="xMinYMin meet" x="13" y="-97.2"/>
<text text-anchor="start" x="37" y="-87.3" font-family="Helvetica,sans-Serif" font-size="11.00" fill="#000000">srid</text>
<polygon fill="none" stroke="#000000" points="8,-61.2 8,-80.2 146,-80.2 146,-61.2 8,-61.2"/>
<text text-anchor="start" x="11" y="-67.3" font-family="Helvetica,sans-Serif" font-size="11.00" fill="#000000">...</text>
<polygon fill="#ffffff" stroke="transparent" points="8,-42.2 8,-61.2 43,-61.2 43,-42.2 8,-42.2"/>
<polygon fill="none" stroke="#000000" points="8,-42.2 8,-61.2 43,-61.2 43,-42.2 8,-42.2"/>
<text text-anchor="start" x="11" y="-48.3" font-family="Helvetica,sans-Serif" font-size="11.00" fill="#000000"> &#160;</text>
<polygon fill="#ffffff" stroke="transparent" points="43,-42.2 43,-61.2 113,-61.2 113,-42.2 43,-42.2"/>
<polygon fill="none" stroke="#000000" points="43,-42.2 43,-61.2 113,-61.2 113,-42.2 43,-42.2"/>
<text text-anchor="start" x="56.2089" y="-48.3" font-family="Helvetica,sans-Serif" font-size="11.00" fill="#000000">8,500 rows</text>
<polygon fill="#ffffff" stroke="transparent" points="113,-42.2 113,-61.2 146,-61.2 146,-42.2 113,-42.2"/>
<polygon fill="none" stroke="#000000" points="113,-42.2 113,-61.2 146,-61.2 146,-42.2 113,-42.2"/>
<text text-anchor="start" x="127.4053" y="-48.3" font-family="Helvetica,sans-Serif" font-size="11.00" fill="#000000">2 &gt;</text>
</a>
</g>
</g>
<!-- geography_columns&#45;&gt;spatial_ref_sys -->
<g id="edge1" class="edge">
<title>geography_columns:w&#45;&gt;spatial_ref_sys:e</title>
<path fill="none" stroke="#000000" stroke-dasharray="5,2" d="M183.6405,-131.7207C169.2198,-120.3385 170.4591,-91.2 146,-91.2"/>
<polygon fill="#000000" stroke="#000000" points="189.8877,-133.7397 196.3929,-139.6255 193.6938,-134.9699 197.5,-136.2 197.5,-136.2 197.5,-136.2 193.6938,-134.9699 198.6071,-132.7745 189.8877,-133.7397 189.8877,-133.7397"/>
<ellipse fill="none" stroke="#000000" cx="186.8428" cy="-132.7556" rx="3.2" ry="3.2"/>
</g>
<!-- geometry_columns -->
<g id="node3" class="node">
<title>geometry_columns</title>
<g id="a_node3"><a xlink:href="../../tables/geometry_columns.html" xlink:title="geometry_columns" target="_top">
<polygon fill="#ffffff" stroke="transparent" points="244,-38.2 244,-80.2 409,-80.2 409,-38.2 244,-38.2"/>
<polygon fill="#f5f5f5" stroke="transparent" points="244.5,-57.2 244.5,-80.2 409.5,-80.2 409.5,-57.2 244.5,-57.2"/>
<polygon fill="none" stroke="#000000" points="244.5,-57.2 244.5,-80.2 409.5,-80.2 409.5,-57.2 244.5,-57.2"/>
<text text-anchor="start" x="249.5" y="-65.8" font-family="Helvetica,sans-Serif" font-weight="bold" font-size="11.00" fill="#000000">geometry_columns</text>
<text text-anchor="start" x="376.4448" y="-65.3" font-family="Helvetica,sans-Serif" font-size="11.00" fill="#000000">[view]</text>
<polygon fill="none" stroke="#000000" points="244.5,-38.2 244.5,-57.2 409.5,-57.2 409.5,-38.2 244.5,-38.2"/>
<text text-anchor="start" x="247.5" y="-44.3" font-family="Helvetica,sans-Serif" font-size="11.00" fill="#000000">...</text>
</a>
</g>
</g>
<!-- geometry_columns&#45;&gt;spatial_ref_sys -->
<g id="edge2" class="edge">
<title>geometry_columns:w&#45;&gt;spatial_ref_sys:e</title>
<path fill="none" stroke="#000000" stroke-dasharray="5,2" d="M229.8192,-48.766C195.3807,-56.6041 188.5155,-91.2 146,-91.2"/>
<polygon fill="#000000" stroke="#000000" points="236.5451,-48.0486 244.8819,-50.7797 240.5226,-47.6243 244.5,-47.2 244.5,-47.2 244.5,-47.2 240.5226,-47.6243 244.1181,-43.6203 236.5451,-48.0486 236.5451,-48.0486"/>
<ellipse fill="none" stroke="#000000" cx="233.3632" cy="-48.388" rx="3.2" ry="3.2"/>
</g>
</g>
</svg>
