<?xml version="1.0" encoding="UTF-8" standalone="no"?>
<!DOCTYPE svg PUBLIC "-//W3C//DTD SVG 1.1//EN"
 "http://www.w3.org/Graphics/SVG/1.1/DTD/svg11.dtd">
<!-- Generated by graphviz version 2.40.1 (20161225.0304)
 -->
<!-- Title: oneDegreeRelationshipsDiagramImplied Pages: 1 -->
<svg width="474pt" height="245pt"
 viewBox="0.00 0.00 474.00 245.20" xmlns="http://www.w3.org/2000/svg" xmlns:xlink="http://www.w3.org/1999/xlink">
<g id="graph0" class="graph" transform="scale(1 1) rotate(0) translate(4 241.2)">
<title>oneDegreeRelationshipsDiagramImplied</title>
<polygon fill="#ffffff" stroke="transparent" points="-4,4 -4,-241.2 470,-241.2 470,4 -4,4"/>
<text text-anchor="middle" x="72.4936" y="-7.3" font-family="Helvetica,sans-Serif" font-size="11.00" fill="#000000">Generated by SchemaSpy</text>
<!-- geography_columns -->
<g id="node1" class="node">
<title>geography_columns</title>
<g id="a_node1"><a xlink:href="../../tables/geography_columns.html" xlink:title="geography_columns" target="_top">
<polygon fill="#ffffff" stroke="transparent" points="195,-52.2 195,-233.2 458,-233.2 458,-52.2 195,-52.2"/>
<polygon fill="#f5f5f5" stroke="transparent" points="197.5,-207.7 197.5,-230.7 456.5,-230.7 456.5,-207.7 197.5,-207.7"/>
<polygon fill="none" stroke="#000000" points="197.5,-207.7 197.5,-230.7 456.5,-230.7 456.5,-207.7 197.5,-207.7"/>
<text text-anchor="start" x="202.5" y="-216.3" font-family="Helvetica,sans-Serif" font-weight="bold" font-size="11.00" fill="#000000">geography_columns</text>
<text text-anchor="start" x="423.3895" y="-215.8" font-family="Helvetica,sans-Serif" font-size="11.00" fill="#000000">[view]</text>
<polygon fill="none" stroke="#000000" points="197.5,-185.7 197.5,-207.7 356.5,-207.7 356.5,-185.7 197.5,-185.7"/>
<text text-anchor="start" x="217.5" y="-192.8" font-family="Helvetica,sans-Serif" font-size="11.00" fill="#000000">f_table_catalog</text>
<polygon fill="none" stroke="#000000" points="356.5,-185.7 356.5,-207.7 456.5,-207.7 456.5,-185.7 356.5,-185.7"/>
<text text-anchor="start" x="359.1153" y="-193.4" font-family="Helvetica,sans-Serif" font-size="11.00" fill="#000000">name[2147483647]</text>
<polygon fill="none" stroke="#000000" points="197.5,-163.7 197.5,-185.7 356.5,-185.7 356.5,-163.7 197.5,-163.7"/>
<text text-anchor="start" x="217.5" y="-170.8" font-family="Helvetica,sans-Serif" font-size="11.00" fill="#000000">f_table_schema</text>
<polygon fill="none" stroke="#000000" points="356.5,-163.7 356.5,-185.7 456.5,-185.7 456.5,-163.7 356.5,-163.7"/>
<text text-anchor="start" x="359.1153" y="-171.4" font-family="Helvetica,sans-Serif" font-size="11.00" fill="#000000">name[2147483647]</text>
<polygon fill="none" stroke="#000000" points="197.5,-141.7 197.5,-163.7 356.5,-163.7 356.5,-141.7 197.5,-141.7"/>
<text text-anchor="start" x="217.5" y="-148.8" font-family="Helvetica,sans-Serif" font-size="11.00" fill="#000000">f_table_name</text>
<polygon fill="none" stroke="#000000" points="356.5,-141.7 356.5,-163.7 456.5,-163.7 456.5,-141.7 356.5,-141.7"/>
<text text-anchor="start" x="359.1153" y="-149.4" font-family="Helvetica,sans-Serif" font-size="11.00" fill="#000000">name[2147483647]</text>
<polygon fill="none" stroke="#000000" points="197.5,-119.7 197.5,-141.7 356.5,-141.7 356.5,-119.7 197.5,-119.7"/>
<text text-anchor="start" x="217.5" y="-126.8" font-family="Helvetica,sans-Serif" font-size="11.00" fill="#000000">f_geography_column</text>
<polygon fill="none" stroke="#000000" points="356.5,-119.7 356.5,-141.7 456.5,-141.7 456.5,-119.7 356.5,-119.7"/>
<text text-anchor="start" x="359.1153" y="-127.4" font-family="Helvetica,sans-Serif" font-size="11.00" fill="#000000">name[2147483647]</text>
<polygon fill="none" stroke="#000000" points="197.5,-97.7 197.5,-119.7 356.5,-119.7 356.5,-97.7 197.5,-97.7"/>
<text text-anchor="start" x="217.5" y="-104.8" font-family="Helvetica,sans-Serif" font-size="11.00" fill="#000000">coord_dimension</text>
<polygon fill="none" stroke="#000000" points="356.5,-97.7 356.5,-119.7 456.5,-119.7 456.5,-97.7 356.5,-97.7"/>
<text text-anchor="start" x="359.5" y="-105.4" font-family="Helvetica,sans-Serif" font-size="11.00" fill="#000000">int4[10]</text>
<polygon fill="none" stroke="#000000" points="197.5,-75.7 197.5,-97.7 356.5,-97.7 356.5,-75.7 197.5,-75.7"/>
<image xlink:href="../../images/foreignKeys.png" width="11px" height="12px" preserveAspectRatio="xMinYMin meet" x="202.5" y="-92.7"/>
<text text-anchor="start" x="217.5" y="-82.8" font-family="Helvetica,sans-Serif" font-size="11.00" fill="#000000">srid</text>
<polygon fill="none" stroke="#000000" points="356.5,-75.7 356.5,-97.7 456.5,-97.7 456.5,-75.7 356.5,-75.7"/>
<text text-anchor="start" x="359.5" y="-83.4" font-family="Helvetica,sans-Serif" font-size="11.00" fill="#000000">int4[10]</text>
<polygon fill="none" stroke="#000000" points="197.5,-53.7 197.5,-75.7 356.5,-75.7 356.5,-53.7 197.5,-53.7"/>
<text text-anchor="start" x="217.5" y="-60.8" font-family="Helvetica,sans-Serif" font-size="11.00" fill="#000000">type</text>
<polygon fill="none" stroke="#000000" points="356.5,-53.7 356.5,-75.7 456.5,-75.7 456.5,-53.7 356.5,-53.7"/>
<text text-anchor="start" x="359.5" y="-61.4" font-family="Helvetica,sans-Serif" font-size="11.00" fill="#000000">text[2147483647]</text>
<polygon fill="none" stroke="#000000" stroke-width="2" points="196,-53.2 196,-232.2 457,-232.2 457,-53.2 196,-53.2"/>
</a>
</g>
</g>
<!-- spatial_ref_sys -->
<g id="node2" class="node">
<title>spatial_ref_sys</title>
<g id="a_node2"><a xlink:href="../../tables/spatial_ref_sys.html" xlink:title="spatial_ref_sys" target="_top">
<polygon fill="#ffffff" stroke="transparent" points="8,-38.2 8,-121.2 146,-121.2 146,-38.2 8,-38.2"/>
<polygon fill="#f5f5f5" stroke="transparent" points="8,-97.7 8,-120.7 146,-120.7 146,-97.7 8,-97.7"/>
<polygon fill="none" stroke="#000000" points="8,-97.7 8,-120.7 146,-120.7 146,-97.7 8,-97.7"/>
<text text-anchor="start" x="13" y="-106.3" font-family="Helvetica,sans-Serif" font-weight="bold" font-size="11.00" fill="#000000">spatial_ref_sys</text>
<text text-anchor="start" x="111.5219" y="-105.8" font-family="Helvetica,sans-Serif" font-size="11.00" fill="#000000">[table]</text>
<polygon fill="none" stroke="#000000" points="8,-75.7 8,-97.7 146,-97.7 146,-75.7 8,-75.7"/>
<image xlink:href="../../images/primaryKeys.png" width="11px" height="12px" preserveAspectRatio="xMinYMin meet" x="13" y="-92.7"/>
<text text-anchor="start" x="37" y="-82.8" font-family="Helvetica,sans-Serif" font-size="11.00" fill="#000000">srid</text>
<polygon fill="none" stroke="#000000" points="8,-56.7 8,-75.7 146,-75.7 146,-56.7 8,-56.7"/>
<text text-anchor="start" x="11" y="-62.8" font-family="Helvetica,sans-Serif" font-size="11.00" fill="#000000">...</text>
<polygon fill="#ffffff" stroke="transparent" points="8,-37.7 8,-56.7 43,-56.7 43,-37.7 8,-37.7"/>
<polygon fill="none" stroke="#000000" points="8,-37.7 8,-56.7 43,-56.7 43,-37.7 8,-37.7"/>
<text text-anchor="start" x="11" y="-43.8" font-family="Helvetica,sans-Serif" font-size="11.00" fill="#000000"> &#160;</text>
<polygon fill="#ffffff" stroke="transparent" points="43,-37.7 43,-56.7 113,-56.7 113,-37.7 43,-37.7"/>
<polygon fill="none" stroke="#000000" points="43,-37.7 43,-56.7 113,-56.7 113,-37.7 43,-37.7"/>
<text text-anchor="start" x="56.2089" y="-43.8" font-family="Helvetica,sans-Serif" font-size="11.00" fill="#000000">8,500 rows</text>
<polygon fill="#ffffff" stroke="transparent" points="113,-37.7 113,-56.7 146,-56.7 146,-37.7 113,-37.7"/>
<polygon fill="none" stroke="#000000" points="113,-37.7 113,-56.7 146,-56.7 146,-37.7 113,-37.7"/>
<text text-anchor="start" x="127.4053" y="-43.8" font-family="Helvetica,sans-Serif" font-size="11.00" fill="#000000">2 &gt;</text>
</a>
</g>
</g>
<!-- geography_columns&#45;&gt;spatial_ref_sys -->
<g id="edge1" class="edge">
<title>geography_columns:w&#45;&gt;spatial_ref_sys:e</title>
<path fill="none" stroke="#000000" stroke-dasharray="5,2" d="M183.0156,-86.7C170.6771,-86.7 163.1667,-86.7 146,-86.7"/>
<polygon fill="#000000" stroke="#000000" points="189.5,-86.7001 197.5,-90.3 193.5,-86.7 197.5,-86.7 197.5,-86.7 197.5,-86.7 193.5,-86.7 197.5,-83.1 189.5,-86.7001 189.5,-86.7001"/>
<ellipse fill="none" stroke="#000000" cx="186.3" cy="-86.7001" rx="3.2" ry="3.2"/>
</g>
</g>
</svg>
