<?xml version="1.0" encoding="UTF-8" standalone="no"?>
<!DOCTYPE svg PUBLIC "-//W3C//DTD SVG 1.1//EN"
 "http://www.w3.org/Graphics/SVG/1.1/DTD/svg11.dtd">
<!-- Generated by graphviz version 2.40.1 (20161225.0304)
 -->
<!-- Title: twoDegreesRelationshipsDiagramImplied Pages: 1 -->
<svg width="467pt" height="295pt"
 viewBox="0.00 0.00 467.00 294.70" xmlns="http://www.w3.org/2000/svg" xmlns:xlink="http://www.w3.org/1999/xlink">
<g id="graph0" class="graph" transform="scale(1 1) rotate(0) translate(4 290.7)">
<title>twoDegreesRelationshipsDiagramImplied</title>
<polygon fill="#ffffff" stroke="transparent" points="-4,4 -4,-290.7 463,-290.7 463,4 -4,4"/>
<text text-anchor="middle" x="72.4936" y="-7.3" font-family="Helvetica,sans-Serif" font-size="11.00" fill="#000000">Generated by SchemaSpy</text>
<!-- geography_columns -->
<g id="node1" class="node">
<title>geography_columns</title>
<g id="a_node1"><a xlink:href="../../tables/geography_columns.html" xlink:title="geography_columns" target="_top">
<polygon fill="#ffffff" stroke="transparent" points="237,-240.7 237,-282.7 409,-282.7 409,-240.7 237,-240.7"/>
<polygon fill="#f5f5f5" stroke="transparent" points="237,-259.7 237,-282.7 409,-282.7 409,-259.7 237,-259.7"/>
<polygon fill="none" stroke="#000000" points="237,-259.7 237,-282.7 409,-282.7 409,-259.7 237,-259.7"/>
<text text-anchor="start" x="242" y="-268.3" font-family="Helvetica,sans-Serif" font-weight="bold" font-size="11.00" fill="#000000">geography_columns</text>
<text text-anchor="start" x="375.9448" y="-267.8" font-family="Helvetica,sans-Serif" font-size="11.00" fill="#000000">[view]</text>
<polygon fill="none" stroke="#000000" points="237,-240.7 237,-259.7 409,-259.7 409,-240.7 237,-240.7"/>
<text text-anchor="start" x="240" y="-246.8" font-family="Helvetica,sans-Serif" font-size="11.00" fill="#000000">...</text>
</a>
</g>
</g>
<!-- spatial_ref_sys -->
<g id="node2" class="node">
<title>spatial_ref_sys</title>
<g id="a_node2"><a xlink:href="../../tables/spatial_ref_sys.html" xlink:title="spatial_ref_sys" target="_top">
<polygon fill="#ffffff" stroke="transparent" points="8,-112.2 8,-195.2 146,-195.2 146,-112.2 8,-112.2"/>
<polygon fill="#f5f5f5" stroke="transparent" points="8,-171.7 8,-194.7 146,-194.7 146,-171.7 8,-171.7"/>
<polygon fill="none" stroke="#000000" points="8,-171.7 8,-194.7 146,-194.7 146,-171.7 8,-171.7"/>
<text text-anchor="start" x="13" y="-180.3" font-family="Helvetica,sans-Serif" font-weight="bold" font-size="11.00" fill="#000000">spatial_ref_sys</text>
<text text-anchor="start" x="111.5219" y="-179.8" font-family="Helvetica,sans-Serif" font-size="11.00" fill="#000000">[table]</text>
<polygon fill="none" stroke="#000000" points="8,-149.7 8,-171.7 146,-171.7 146,-149.7 8,-149.7"/>
<image xlink:href="../../images/primaryKeys.png" width="11px" height="12px" preserveAspectRatio="xMinYMin meet" x="13" y="-166.7"/>
<text text-anchor="start" x="37" y="-156.8" font-family="Helvetica,sans-Serif" font-size="11.00" fill="#000000">srid</text>
<polygon fill="none" stroke="#000000" points="8,-130.7 8,-149.7 146,-149.7 146,-130.7 8,-130.7"/>
<text text-anchor="start" x="11" y="-136.8" font-family="Helvetica,sans-Serif" font-size="11.00" fill="#000000">...</text>
<polygon fill="#ffffff" stroke="transparent" points="8,-111.7 8,-130.7 43,-130.7 43,-111.7 8,-111.7"/>
<polygon fill="none" stroke="#000000" points="8,-111.7 8,-130.7 43,-130.7 43,-111.7 8,-111.7"/>
<text text-anchor="start" x="11" y="-117.8" font-family="Helvetica,sans-Serif" font-size="11.00" fill="#000000"> &#160;</text>
<polygon fill="#ffffff" stroke="transparent" points="43,-111.7 43,-130.7 113,-130.7 113,-111.7 43,-111.7"/>
<polygon fill="none" stroke="#000000" points="43,-111.7 43,-130.7 113,-130.7 113,-111.7 43,-111.7"/>
<text text-anchor="start" x="56.2089" y="-117.8" font-family="Helvetica,sans-Serif" font-size="11.00" fill="#000000">8,500 rows</text>
<polygon fill="#ffffff" stroke="transparent" points="113,-111.7 113,-130.7 146,-130.7 146,-111.7 113,-111.7"/>
<polygon fill="none" stroke="#000000" points="113,-111.7 113,-130.7 146,-130.7 146,-111.7 113,-111.7"/>
<text text-anchor="start" x="127.4053" y="-117.8" font-family="Helvetica,sans-Serif" font-size="11.00" fill="#000000">2 &gt;</text>
</a>
</g>
</g>
<!-- geography_columns&#45;&gt;spatial_ref_sys -->
<g id="edge1" class="edge">
<title>geography_columns:w&#45;&gt;spatial_ref_sys:e</title>
<path fill="none" stroke="#000000" stroke-dasharray="5,2" d="M222.4779,-248.8819C208.807,-247.0068 200.9255,-241.6109 187,-229.7 159.8915,-206.5133 181.672,-160.7 146,-160.7"/>
<polygon fill="#000000" stroke="#000000" points="229.0127,-249.25 236.7975,-253.2943 233.0063,-249.475 237,-249.7 237,-249.7 237,-249.7 233.0063,-249.475 237.2025,-246.1057 229.0127,-249.25 229.0127,-249.25"/>
<ellipse fill="none" stroke="#000000" cx="225.8177" cy="-249.07" rx="3.2" ry="3.2"/>
</g>
<!-- geometry_columns -->
<g id="node3" class="node">
<title>geometry_columns</title>
<g id="a_node3"><a xlink:href="../../tables/geometry_columns.html" xlink:title="geometry_columns" target="_top">
<polygon fill="#ffffff" stroke="transparent" points="195,-38.2 195,-219.2 451,-219.2 451,-38.2 195,-38.2"/>
<polygon fill="#f5f5f5" stroke="transparent" points="197,-193.7 197,-216.7 449,-216.7 449,-193.7 197,-193.7"/>
<polygon fill="none" stroke="#000000" points="197,-193.7 197,-216.7 449,-216.7 449,-193.7 197,-193.7"/>
<text text-anchor="start" x="202" y="-202.3" font-family="Helvetica,sans-Serif" font-weight="bold" font-size="11.00" fill="#000000">geometry_columns</text>
<text text-anchor="start" x="415.8895" y="-201.8" font-family="Helvetica,sans-Serif" font-size="11.00" fill="#000000">[view]</text>
<polygon fill="none" stroke="#000000" points="197,-171.7 197,-193.7 349,-193.7 349,-171.7 197,-171.7"/>
<text text-anchor="start" x="217" y="-178.8" font-family="Helvetica,sans-Serif" font-size="11.00" fill="#000000">f_table_catalog</text>
<polygon fill="none" stroke="#000000" points="349,-171.7 349,-193.7 449,-193.7 449,-171.7 349,-171.7"/>
<text text-anchor="start" x="352" y="-179.4" font-family="Helvetica,sans-Serif" font-size="11.00" fill="#000000">varchar[256]</text>
<polygon fill="none" stroke="#000000" points="197,-149.7 197,-171.7 349,-171.7 349,-149.7 197,-149.7"/>
<text text-anchor="start" x="217" y="-156.8" font-family="Helvetica,sans-Serif" font-size="11.00" fill="#000000">f_table_schema</text>
<polygon fill="none" stroke="#000000" points="349,-149.7 349,-171.7 449,-171.7 449,-149.7 349,-149.7"/>
<text text-anchor="start" x="351.6153" y="-157.4" font-family="Helvetica,sans-Serif" font-size="11.00" fill="#000000">name[2147483647]</text>
<polygon fill="none" stroke="#000000" points="197,-127.7 197,-149.7 349,-149.7 349,-127.7 197,-127.7"/>
<text text-anchor="start" x="217" y="-134.8" font-family="Helvetica,sans-Serif" font-size="11.00" fill="#000000">f_table_name</text>
<polygon fill="none" stroke="#000000" points="349,-127.7 349,-149.7 449,-149.7 449,-127.7 349,-127.7"/>
<text text-anchor="start" x="351.6153" y="-135.4" font-family="Helvetica,sans-Serif" font-size="11.00" fill="#000000">name[2147483647]</text>
<polygon fill="none" stroke="#000000" points="197,-105.7 197,-127.7 349,-127.7 349,-105.7 197,-105.7"/>
<text text-anchor="start" x="217" y="-112.8" font-family="Helvetica,sans-Serif" font-size="11.00" fill="#000000">f_geometry_column</text>
<polygon fill="none" stroke="#000000" points="349,-105.7 349,-127.7 449,-127.7 449,-105.7 349,-105.7"/>
<text text-anchor="start" x="351.6153" y="-113.4" font-family="Helvetica,sans-Serif" font-size="11.00" fill="#000000">name[2147483647]</text>
<polygon fill="none" stroke="#000000" points="197,-83.7 197,-105.7 349,-105.7 349,-83.7 197,-83.7"/>
<text text-anchor="start" x="217" y="-90.8" font-family="Helvetica,sans-Serif" font-size="11.00" fill="#000000">coord_dimension</text>
<polygon fill="none" stroke="#000000" points="349,-83.7 349,-105.7 449,-105.7 449,-83.7 349,-83.7"/>
<text text-anchor="start" x="352" y="-91.4" font-family="Helvetica,sans-Serif" font-size="11.00" fill="#000000">int4[10]</text>
<polygon fill="none" stroke="#000000" points="197,-61.7 197,-83.7 349,-83.7 349,-61.7 197,-61.7"/>
<image xlink:href="../../images/foreignKeys.png" width="11px" height="12px" preserveAspectRatio="xMinYMin meet" x="202" y="-78.7"/>
<text text-anchor="start" x="217" y="-68.8" font-family="Helvetica,sans-Serif" font-size="11.00" fill="#000000">srid</text>
<polygon fill="none" stroke="#000000" points="349,-61.7 349,-83.7 449,-83.7 449,-61.7 349,-61.7"/>
<text text-anchor="start" x="352" y="-69.4" font-family="Helvetica,sans-Serif" font-size="11.00" fill="#000000">int4[10]</text>
<polygon fill="none" stroke="#000000" points="197,-39.7 197,-61.7 349,-61.7 349,-39.7 197,-39.7"/>
<text text-anchor="start" x="217" y="-46.8" font-family="Helvetica,sans-Serif" font-size="11.00" fill="#000000">type</text>
<polygon fill="none" stroke="#000000" points="349,-39.7 349,-61.7 449,-61.7 449,-39.7 349,-39.7"/>
<text text-anchor="start" x="352" y="-47.4" font-family="Helvetica,sans-Serif" font-size="11.00" fill="#000000">varchar[30]</text>
<polygon fill="none" stroke="#000000" stroke-width="2" points="196,-39.2 196,-218.2 450,-218.2 450,-39.2 196,-39.2"/>
</a>
</g>
</g>
<!-- geometry_columns&#45;&gt;spatial_ref_sys -->
<g id="edge2" class="edge">
<title>geometry_columns:w&#45;&gt;spatial_ref_sys:e</title>
<path fill="none" stroke="#000000" stroke-dasharray="5,2" d="M183.0699,-76.9444C160.7709,-94.5228 185.2009,-160.7 146,-160.7"/>
<polygon fill="#000000" stroke="#000000" points="189.3473,-75.0318 198.0493,-76.1437 193.1737,-73.8659 197,-72.7 197,-72.7 197,-72.7 193.1737,-73.8659 195.9507,-69.2563 189.3473,-75.0318 189.3473,-75.0318"/>
<ellipse fill="none" stroke="#000000" cx="186.2863" cy="-75.9645" rx="3.2" ry="3.2"/>
</g>
</g>
</svg>
