<?xml version="1.0" encoding="UTF-8" standalone="no"?>
<!DOCTYPE svg PUBLIC "-//W3C//DTD SVG 1.1//EN"
 "http://www.w3.org/Graphics/SVG/1.1/DTD/svg11.dtd">
<!-- Generated by graphviz version 2.40.1 (20161225.0304)
 -->
<!-- Title: oneDegreeRelationshipsDiagram Pages: 1 -->
<svg width="350pt" height="558pt"
 viewBox="0.00 0.00 350.00 558.20" xmlns="http://www.w3.org/2000/svg" xmlns:xlink="http://www.w3.org/1999/xlink">
<g id="graph0" class="graph" transform="scale(1 1) rotate(0) translate(4 554.2)">
<title>oneDegreeRelationshipsDiagram</title>
<polygon fill="#ffffff" stroke="transparent" points="-4,4 -4,-554.2 346,-554.2 346,4 -4,4"/>
<text text-anchor="middle" x="72.4936" y="-7.3" font-family="Helvetica,sans-Serif" font-size="11.00" fill="#000000">Generated by SchemaSpy</text>
<!-- network_observations_backup -->
<g id="node1" class="node">
<title>network_observations_backup</title>
<g id="a_node1"><a xlink:href="../../tables/network_observations_backup.html" xlink:title="network_observations_backup" target="_top">
<polygon fill="#ffffff" stroke="transparent" points="8,-38.2 8,-546.2 334,-546.2 334,-38.2 8,-38.2"/>
<polygon fill="#f5f5f5" stroke="transparent" points="10,-521.2 10,-544.2 332,-544.2 332,-521.2 10,-521.2"/>
<polygon fill="none" stroke="#000000" points="10,-521.2 10,-544.2 332,-544.2 332,-521.2 10,-521.2"/>
<text text-anchor="start" x="15" y="-529.8" font-family="Helvetica,sans-Serif" font-weight="bold" font-size="11.00" fill="#000000">network_observations_backup</text>
<text text-anchor="start" x="297.0437" y="-529.3" font-family="Helvetica,sans-Serif" font-size="11.00" fill="#000000">[table]</text>
<polygon fill="none" stroke="#000000" points="10,-499.2 10,-521.2 235,-521.2 235,-499.2 10,-499.2"/>
<text text-anchor="start" x="30" y="-506.3" font-family="Helvetica,sans-Serif" font-size="11.00" fill="#000000">observation_id</text>
<polygon fill="none" stroke="#000000" points="235,-499.2 235,-521.2 332,-521.2 332,-499.2 235,-499.2"/>
<text text-anchor="start" x="238" y="-506.9" font-family="Helvetica,sans-Serif" font-size="11.00" fill="#000000">int8[19]</text>
<polygon fill="none" stroke="#000000" points="10,-477.2 10,-499.2 235,-499.2 235,-477.2 10,-477.2"/>
<text text-anchor="start" x="30" y="-484.3" font-family="Helvetica,sans-Serif" font-size="11.00" fill="#000000">access_point_id</text>
<polygon fill="none" stroke="#000000" points="235,-477.2 235,-499.2 332,-499.2 332,-477.2 235,-477.2"/>
<text text-anchor="start" x="238" y="-484.9" font-family="Helvetica,sans-Serif" font-size="11.00" fill="#000000">int8[19]</text>
<polygon fill="none" stroke="#000000" points="10,-455.2 10,-477.2 235,-477.2 235,-455.2 10,-455.2"/>
<text text-anchor="start" x="30" y="-462.3" font-family="Helvetica,sans-Serif" font-size="11.00" fill="#000000">data_source_id</text>
<polygon fill="none" stroke="#000000" points="235,-455.2 235,-477.2 332,-477.2 332,-455.2 235,-455.2"/>
<text text-anchor="start" x="238" y="-462.9" font-family="Helvetica,sans-Serif" font-size="11.00" fill="#000000">int4[10]</text>
<polygon fill="none" stroke="#000000" points="10,-433.2 10,-455.2 235,-455.2 235,-433.2 10,-433.2"/>
<text text-anchor="start" x="30" y="-440.3" font-family="Helvetica,sans-Serif" font-size="11.00" fill="#000000">network_ssid</text>
<polygon fill="none" stroke="#000000" points="235,-433.2 235,-455.2 332,-455.2 332,-433.2 235,-433.2"/>
<text text-anchor="start" x="238" y="-440.9" font-family="Helvetica,sans-Serif" font-size="11.00" fill="#000000">text[2147483647]</text>
<polygon fill="none" stroke="#000000" points="10,-411.2 10,-433.2 235,-433.2 235,-411.2 10,-411.2"/>
<text text-anchor="start" x="30" y="-418.3" font-family="Helvetica,sans-Serif" font-size="11.00" fill="#000000">is_hidden_network</text>
<polygon fill="none" stroke="#000000" points="235,-411.2 235,-433.2 332,-433.2 332,-411.2 235,-411.2"/>
<text text-anchor="start" x="238" y="-418.9" font-family="Helvetica,sans-Serif" font-size="11.00" fill="#000000">bool[1]</text>
<polygon fill="none" stroke="#000000" points="10,-389.2 10,-411.2 235,-411.2 235,-389.2 10,-389.2"/>
<text text-anchor="start" x="30" y="-396.3" font-family="Helvetica,sans-Serif" font-size="11.00" fill="#000000">frequency_hz</text>
<polygon fill="none" stroke="#000000" points="235,-389.2 235,-411.2 332,-411.2 332,-389.2 235,-389.2"/>
<text text-anchor="start" x="238" y="-396.9" font-family="Helvetica,sans-Serif" font-size="11.00" fill="#000000">int4[10]</text>
<polygon fill="none" stroke="#000000" points="10,-367.2 10,-389.2 235,-389.2 235,-367.2 10,-367.2"/>
<text text-anchor="start" x="30" y="-374.3" font-family="Helvetica,sans-Serif" font-size="11.00" fill="#000000">channel_number</text>
<polygon fill="none" stroke="#000000" points="235,-367.2 235,-389.2 332,-389.2 332,-367.2 235,-367.2"/>
<text text-anchor="start" x="238" y="-374.9" font-family="Helvetica,sans-Serif" font-size="11.00" fill="#000000">int4[10]</text>
<polygon fill="none" stroke="#000000" points="10,-345.2 10,-367.2 235,-367.2 235,-345.2 10,-345.2"/>
<text text-anchor="start" x="30" y="-352.3" font-family="Helvetica,sans-Serif" font-size="11.00" fill="#000000">channel_width_mhz</text>
<polygon fill="none" stroke="#000000" points="235,-345.2 235,-367.2 332,-367.2 332,-345.2 235,-345.2"/>
<text text-anchor="start" x="238" y="-352.9" font-family="Helvetica,sans-Serif" font-size="11.00" fill="#000000">int4[10]</text>
<polygon fill="none" stroke="#000000" points="10,-323.2 10,-345.2 235,-345.2 235,-323.2 10,-323.2"/>
<text text-anchor="start" x="30" y="-330.3" font-family="Helvetica,sans-Serif" font-size="11.00" fill="#000000">capabilities_string</text>
<polygon fill="none" stroke="#000000" points="235,-323.2 235,-345.2 332,-345.2 332,-323.2 235,-323.2"/>
<text text-anchor="start" x="238" y="-330.9" font-family="Helvetica,sans-Serif" font-size="11.00" fill="#000000">text[2147483647]</text>
<polygon fill="none" stroke="#000000" points="10,-301.2 10,-323.2 235,-323.2 235,-301.2 10,-301.2"/>
<text text-anchor="start" x="30" y="-308.3" font-family="Helvetica,sans-Serif" font-size="11.00" fill="#000000">encryption_type</text>
<polygon fill="none" stroke="#000000" points="235,-301.2 235,-323.2 332,-323.2 332,-301.2 235,-301.2"/>
<text text-anchor="start" x="238" y="-308.9" font-family="Helvetica,sans-Serif" font-size="11.00" fill="#000000">text[2147483647]</text>
<polygon fill="none" stroke="#000000" points="10,-279.2 10,-301.2 235,-301.2 235,-279.2 10,-279.2"/>
<text text-anchor="start" x="30" y="-286.3" font-family="Helvetica,sans-Serif" font-size="11.00" fill="#000000">signal_strength_dbm</text>
<polygon fill="none" stroke="#000000" points="235,-279.2 235,-301.2 332,-301.2 332,-279.2 235,-279.2"/>
<text text-anchor="start" x="238" y="-286.9" font-family="Helvetica,sans-Serif" font-size="11.00" fill="#000000">int2[5]</text>
<polygon fill="none" stroke="#000000" points="10,-257.2 10,-279.2 235,-279.2 235,-257.2 10,-257.2"/>
<text text-anchor="start" x="30" y="-264.3" font-family="Helvetica,sans-Serif" font-size="11.00" fill="#000000">noise_floor_dbm</text>
<polygon fill="none" stroke="#000000" points="235,-257.2 235,-279.2 332,-279.2 332,-257.2 235,-257.2"/>
<text text-anchor="start" x="238" y="-264.9" font-family="Helvetica,sans-Serif" font-size="11.00" fill="#000000">int2[5]</text>
<polygon fill="none" stroke="#000000" points="10,-235.2 10,-257.2 235,-257.2 235,-235.2 10,-235.2"/>
<text text-anchor="start" x="30" y="-242.3" font-family="Helvetica,sans-Serif" font-size="11.00" fill="#000000">signal_to_noise_ratio_db</text>
<polygon fill="none" stroke="#000000" points="235,-235.2 235,-257.2 332,-257.2 332,-235.2 235,-235.2"/>
<text text-anchor="start" x="238" y="-242.9" font-family="Helvetica,sans-Serif" font-size="11.00" fill="#000000">int2[5]</text>
<polygon fill="none" stroke="#000000" points="10,-213.2 10,-235.2 235,-235.2 235,-213.2 10,-213.2"/>
<text text-anchor="start" x="30" y="-220.3" font-family="Helvetica,sans-Serif" font-size="11.00" fill="#000000">observation_timestamp_ms</text>
<polygon fill="none" stroke="#000000" points="235,-213.2 235,-235.2 332,-235.2 332,-213.2 235,-213.2"/>
<text text-anchor="start" x="238" y="-220.9" font-family="Helvetica,sans-Serif" font-size="11.00" fill="#000000">int8[19]</text>
<polygon fill="none" stroke="#000000" points="10,-191.2 10,-213.2 235,-213.2 235,-191.2 10,-191.2"/>
<text text-anchor="start" x="30" y="-198.3" font-family="Helvetica,sans-Serif" font-size="11.00" fill="#000000">observation_duration_ms</text>
<polygon fill="none" stroke="#000000" points="235,-191.2 235,-213.2 332,-213.2 332,-191.2 235,-191.2"/>
<text text-anchor="start" x="238" y="-198.9" font-family="Helvetica,sans-Serif" font-size="11.00" fill="#000000">int4[10]</text>
<polygon fill="none" stroke="#000000" points="10,-169.2 10,-191.2 235,-191.2 235,-169.2 10,-169.2"/>
<text text-anchor="start" x="30" y="-176.3" font-family="Helvetica,sans-Serif" font-size="11.00" fill="#000000">data_confidence_score</text>
<polygon fill="none" stroke="#000000" points="235,-169.2 235,-191.2 332,-191.2 332,-169.2 235,-169.2"/>
<text text-anchor="start" x="238" y="-176.9" font-family="Helvetica,sans-Serif" font-size="11.00" fill="#000000">numeric[3,2]</text>
<polygon fill="none" stroke="#000000" points="10,-147.2 10,-169.2 235,-169.2 235,-147.2 10,-147.2"/>
<text text-anchor="start" x="30" y="-154.3" font-family="Helvetica,sans-Serif" font-size="11.00" fill="#000000">quality_flags</text>
<polygon fill="none" stroke="#000000" points="235,-147.2 235,-169.2 332,-169.2 332,-147.2 235,-147.2"/>
<text text-anchor="start" x="237.9468" y="-154.9" font-family="Helvetica,sans-Serif" font-size="11.00" fill="#000000">_text[2147483647]</text>
<polygon fill="none" stroke="#000000" points="10,-125.2 10,-147.2 235,-147.2 235,-125.2 10,-125.2"/>
<text text-anchor="start" x="30" y="-132.3" font-family="Helvetica,sans-Serif" font-size="11.00" fill="#000000">original_record_id</text>
<polygon fill="none" stroke="#000000" points="235,-125.2 235,-147.2 332,-147.2 332,-125.2 235,-125.2"/>
<text text-anchor="start" x="238" y="-132.9" font-family="Helvetica,sans-Serif" font-size="11.00" fill="#000000">int4[10]</text>
<polygon fill="none" stroke="#000000" points="10,-103.2 10,-125.2 235,-125.2 235,-103.2 10,-103.2"/>
<text text-anchor="start" x="30" y="-110.3" font-family="Helvetica,sans-Serif" font-size="11.00" fill="#000000">original_source_type_code</text>
<polygon fill="none" stroke="#000000" points="235,-103.2 235,-125.2 332,-125.2 332,-103.2 235,-103.2"/>
<text text-anchor="start" x="238" y="-110.9" font-family="Helvetica,sans-Serif" font-size="11.00" fill="#000000">bpchar[1]</text>
<polygon fill="none" stroke="#000000" points="10,-81.2 10,-103.2 235,-103.2 235,-81.2 10,-81.2"/>
<text text-anchor="start" x="30" y="-88.3" font-family="Helvetica,sans-Serif" font-size="11.00" fill="#000000">record_created_at</text>
<polygon fill="none" stroke="#000000" points="235,-81.2 235,-103.2 332,-103.2 332,-81.2 235,-81.2"/>
<text text-anchor="start" x="238" y="-88.9" font-family="Helvetica,sans-Serif" font-size="11.00" fill="#000000">timestamptz[35,6]</text>
<polygon fill="none" stroke="#000000" points="10,-59.2 10,-81.2 235,-81.2 235,-59.2 10,-59.2"/>
<text text-anchor="start" x="30" y="-66.3" font-family="Helvetica,sans-Serif" font-size="11.00" fill="#000000">data_quality_flag</text>
<polygon fill="none" stroke="#000000" points="235,-59.2 235,-81.2 332,-81.2 332,-59.2 235,-59.2"/>
<text text-anchor="start" x="237.9468" y="-66.9" font-family="Helvetica,sans-Serif" font-size="11.00" fill="#000000">_text[2147483647]</text>
<polygon fill="#ffffff" stroke="transparent" points="10,-40.2 10,-59.2 97,-59.2 97,-40.2 10,-40.2"/>
<polygon fill="none" stroke="#000000" points="10,-40.2 10,-59.2 97,-59.2 97,-40.2 10,-40.2"/>
<text text-anchor="start" x="13" y="-46.3" font-family="Helvetica,sans-Serif" font-size="11.00" fill="#000000">&lt; 0</text>
<polygon fill="#ffffff" stroke="transparent" points="97,-40.2 97,-59.2 235,-59.2 235,-40.2 97,-40.2"/>
<polygon fill="none" stroke="#000000" points="97,-40.2 97,-59.2 235,-59.2 235,-40.2 97,-40.2"/>
<text text-anchor="start" x="165.9791" y="-46.3" font-family="Helvetica,sans-Serif" font-size="11.00" fill="#000000">281,196 rows</text>
<polygon fill="#ffffff" stroke="transparent" points="235,-40.2 235,-59.2 332,-59.2 332,-40.2 235,-40.2"/>
<polygon fill="none" stroke="#000000" points="235,-40.2 235,-59.2 332,-59.2 332,-40.2 235,-40.2"/>
<text text-anchor="start" x="313.4053" y="-46.3" font-family="Helvetica,sans-Serif" font-size="11.00" fill="#000000">0 &gt;</text>
<polygon fill="none" stroke="#000000" stroke-width="2" points="9,-39.2 9,-545.2 333,-545.2 333,-39.2 9,-39.2"/>
</a>
</g>
</g>
</g>
</svg>
