<?xml version="1.0" encoding="UTF-8" standalone="no"?>
<!DOCTYPE svg PUBLIC "-//W3C//DTD SVG 1.1//EN"
 "http://www.w3.org/Graphics/SVG/1.1/DTD/svg11.dtd">
<!-- Generated by graphviz version 2.40.1 (20161225.0304)
 -->
<!-- Title: oneDegreeRelationshipsDiagram Pages: 1 -->
<svg width="279pt" height="385pt"
 viewBox="0.00 0.00 279.00 385.20" xmlns="http://www.w3.org/2000/svg" xmlns:xlink="http://www.w3.org/1999/xlink">
<g id="graph0" class="graph" transform="scale(1 1) rotate(0) translate(4 381.2)">
<title>oneDegreeRelationshipsDiagram</title>
<polygon fill="#ffffff" stroke="transparent" points="-4,4 -4,-381.2 275,-381.2 275,4 -4,4"/>
<text text-anchor="middle" x="72.4936" y="-7.3" font-family="Helvetica,sans-Serif" font-size="11.00" fill="#000000">Generated by SchemaSpy</text>
<!-- networks -->
<g id="node1" class="node">
<title>networks</title>
<g id="a_node1"><a xlink:href="../../tables/networks.html" xlink:title="networks" target="_top">
<polygon fill="#ffffff" stroke="transparent" points="8,-38.2 8,-373.2 263,-373.2 263,-38.2 8,-38.2"/>
<polygon fill="#f5f5f5" stroke="transparent" points="10.5,-347.7 10.5,-370.7 261.5,-370.7 261.5,-347.7 10.5,-347.7"/>
<polygon fill="none" stroke="#000000" points="10.5,-347.7 10.5,-370.7 261.5,-370.7 261.5,-347.7 10.5,-347.7"/>
<text text-anchor="start" x="15.5" y="-356.3" font-family="Helvetica,sans-Serif" font-weight="bold" font-size="11.00" fill="#000000">networks</text>
<text text-anchor="start" x="228.3895" y="-355.8" font-family="Helvetica,sans-Serif" font-size="11.00" fill="#000000">[view]</text>
<polygon fill="none" stroke="#000000" points="10.5,-325.7 10.5,-347.7 142.5,-347.7 142.5,-325.7 10.5,-325.7"/>
<text text-anchor="start" x="30.5" y="-332.8" font-family="Helvetica,sans-Serif" font-size="11.00" fill="#000000">id</text>
<polygon fill="none" stroke="#000000" points="142.5,-325.7 142.5,-347.7 261.5,-347.7 261.5,-325.7 142.5,-325.7"/>
<text text-anchor="start" x="145.5" y="-333.4" font-family="Helvetica,sans-Serif" font-size="11.00" fill="#000000">text[2147483647]</text>
<polygon fill="none" stroke="#000000" points="10.5,-303.7 10.5,-325.7 142.5,-325.7 142.5,-303.7 10.5,-303.7"/>
<text text-anchor="start" x="30.5" y="-310.8" font-family="Helvetica,sans-Serif" font-size="11.00" fill="#000000">ssid</text>
<polygon fill="none" stroke="#000000" points="142.5,-303.7 142.5,-325.7 261.5,-325.7 261.5,-303.7 142.5,-303.7"/>
<text text-anchor="start" x="145.5" y="-311.4" font-family="Helvetica,sans-Serif" font-size="11.00" fill="#000000">text[2147483647]</text>
<polygon fill="none" stroke="#000000" points="10.5,-281.7 10.5,-303.7 142.5,-303.7 142.5,-281.7 10.5,-281.7"/>
<text text-anchor="start" x="30.5" y="-288.8" font-family="Helvetica,sans-Serif" font-size="11.00" fill="#000000">bssid</text>
<polygon fill="none" stroke="#000000" points="142.5,-281.7 142.5,-303.7 261.5,-303.7 261.5,-281.7 142.5,-281.7"/>
<text text-anchor="start" x="145.5" y="-289.4" font-family="Helvetica,sans-Serif" font-size="11.00" fill="#000000">text[2147483647]</text>
<polygon fill="none" stroke="#000000" points="10.5,-259.7 10.5,-281.7 142.5,-281.7 142.5,-259.7 10.5,-259.7"/>
<text text-anchor="start" x="30.5" y="-266.8" font-family="Helvetica,sans-Serif" font-size="11.00" fill="#000000">latitude</text>
<polygon fill="none" stroke="#000000" points="142.5,-259.7 142.5,-281.7 261.5,-281.7 261.5,-259.7 142.5,-259.7"/>
<text text-anchor="start" x="145.5" y="-267.4" font-family="Helvetica,sans-Serif" font-size="11.00" fill="#000000">float8[17,17]</text>
<polygon fill="none" stroke="#000000" points="10.5,-237.7 10.5,-259.7 142.5,-259.7 142.5,-237.7 10.5,-237.7"/>
<text text-anchor="start" x="30.5" y="-244.8" font-family="Helvetica,sans-Serif" font-size="11.00" fill="#000000">longitude</text>
<polygon fill="none" stroke="#000000" points="142.5,-237.7 142.5,-259.7 261.5,-259.7 261.5,-237.7 142.5,-237.7"/>
<text text-anchor="start" x="145.5" y="-245.4" font-family="Helvetica,sans-Serif" font-size="11.00" fill="#000000">float8[17,17]</text>
<polygon fill="none" stroke="#000000" points="10.5,-215.7 10.5,-237.7 142.5,-237.7 142.5,-215.7 10.5,-215.7"/>
<text text-anchor="start" x="30.5" y="-222.8" font-family="Helvetica,sans-Serif" font-size="11.00" fill="#000000">geom</text>
<polygon fill="none" stroke="#000000" points="142.5,-215.7 142.5,-237.7 261.5,-237.7 261.5,-215.7 142.5,-215.7"/>
<text text-anchor="start" x="145.4485" y="-223.4" font-family="Helvetica,sans-Serif" font-size="11.00" fill="#000000">geometry[2147483647]</text>
<polygon fill="none" stroke="#000000" points="10.5,-193.7 10.5,-215.7 142.5,-215.7 142.5,-193.7 10.5,-193.7"/>
<text text-anchor="start" x="30.5" y="-200.8" font-family="Helvetica,sans-Serif" font-size="11.00" fill="#000000">signal_strength</text>
<polygon fill="none" stroke="#000000" points="142.5,-193.7 142.5,-215.7 261.5,-215.7 261.5,-193.7 142.5,-193.7"/>
<text text-anchor="start" x="145.5" y="-201.4" font-family="Helvetica,sans-Serif" font-size="11.00" fill="#000000">int4[10]</text>
<polygon fill="none" stroke="#000000" points="10.5,-171.7 10.5,-193.7 142.5,-193.7 142.5,-171.7 10.5,-171.7"/>
<text text-anchor="start" x="30.5" y="-178.8" font-family="Helvetica,sans-Serif" font-size="11.00" fill="#000000">encryption</text>
<polygon fill="none" stroke="#000000" points="142.5,-171.7 142.5,-193.7 261.5,-193.7 261.5,-171.7 142.5,-171.7"/>
<text text-anchor="start" x="145.5" y="-179.4" font-family="Helvetica,sans-Serif" font-size="11.00" fill="#000000">text[2147483647]</text>
<polygon fill="none" stroke="#000000" points="10.5,-149.7 10.5,-171.7 142.5,-171.7 142.5,-149.7 10.5,-149.7"/>
<text text-anchor="start" x="30.5" y="-156.8" font-family="Helvetica,sans-Serif" font-size="11.00" fill="#000000">radio_type</text>
<polygon fill="none" stroke="#000000" points="142.5,-149.7 142.5,-171.7 261.5,-171.7 261.5,-149.7 142.5,-149.7"/>
<text text-anchor="start" x="145.5" y="-157.4" font-family="Helvetica,sans-Serif" font-size="11.00" fill="#000000">text[2147483647]</text>
<polygon fill="none" stroke="#000000" points="10.5,-127.7 10.5,-149.7 142.5,-149.7 142.5,-127.7 10.5,-127.7"/>
<text text-anchor="start" x="30.5" y="-134.8" font-family="Helvetica,sans-Serif" font-size="11.00" fill="#000000">security_level</text>
<polygon fill="none" stroke="#000000" points="142.5,-127.7 142.5,-149.7 261.5,-149.7 261.5,-127.7 142.5,-127.7"/>
<text text-anchor="start" x="145.5" y="-135.4" font-family="Helvetica,sans-Serif" font-size="11.00" fill="#000000">text[2147483647]</text>
<polygon fill="none" stroke="#000000" points="10.5,-105.7 10.5,-127.7 142.5,-127.7 142.5,-105.7 10.5,-105.7"/>
<text text-anchor="start" x="30.5" y="-112.8" font-family="Helvetica,sans-Serif" font-size="11.00" fill="#000000">frequency</text>
<polygon fill="none" stroke="#000000" points="142.5,-105.7 142.5,-127.7 261.5,-127.7 261.5,-105.7 142.5,-105.7"/>
<text text-anchor="start" x="145.5" y="-113.4" font-family="Helvetica,sans-Serif" font-size="11.00" fill="#000000">int8[19]</text>
<polygon fill="none" stroke="#000000" points="10.5,-83.7 10.5,-105.7 142.5,-105.7 142.5,-83.7 10.5,-83.7"/>
<text text-anchor="start" x="30.5" y="-90.8" font-family="Helvetica,sans-Serif" font-size="11.00" fill="#000000">observed_at</text>
<polygon fill="none" stroke="#000000" points="142.5,-83.7 142.5,-105.7 261.5,-105.7 261.5,-83.7 142.5,-83.7"/>
<text text-anchor="start" x="145.5" y="-91.4" font-family="Helvetica,sans-Serif" font-size="11.00" fill="#000000">timestamptz[35,6]</text>
<polygon fill="none" stroke="#000000" points="10.5,-61.7 10.5,-83.7 142.5,-83.7 142.5,-61.7 10.5,-61.7"/>
<text text-anchor="start" x="30.5" y="-68.8" font-family="Helvetica,sans-Serif" font-size="11.00" fill="#000000">channel_number</text>
<polygon fill="none" stroke="#000000" points="142.5,-61.7 142.5,-83.7 261.5,-83.7 261.5,-61.7 142.5,-61.7"/>
<text text-anchor="start" x="145.5" y="-69.4" font-family="Helvetica,sans-Serif" font-size="11.00" fill="#000000">int4[10]</text>
<polygon fill="none" stroke="#000000" points="10.5,-39.7 10.5,-61.7 142.5,-61.7 142.5,-39.7 10.5,-39.7"/>
<text text-anchor="start" x="30.5" y="-46.8" font-family="Helvetica,sans-Serif" font-size="11.00" fill="#000000">altitude</text>
<polygon fill="none" stroke="#000000" points="142.5,-39.7 142.5,-61.7 261.5,-61.7 261.5,-39.7 142.5,-39.7"/>
<text text-anchor="start" x="145.5" y="-47.4" font-family="Helvetica,sans-Serif" font-size="11.00" fill="#000000">float8[17,17]</text>
<polygon fill="none" stroke="#000000" stroke-width="2" points="9,-39.2 9,-372.2 262,-372.2 262,-39.2 9,-39.2"/>
</a>
</g>
</g>
</g>
</svg>
