<?xml version="1.0" encoding="UTF-8" standalone="no"?>
<!DOCTYPE svg PUBLIC "-//W3C//DTD SVG 1.1//EN"
 "http://www.w3.org/Graphics/SVG/1.1/DTD/svg11.dtd">
<!-- Generated by graphviz version 2.40.1 (20161225.0304)
 -->
<!-- Title: oneDegreeRelationshipsDiagramImplied Pages: 1 -->
<svg width="442pt" height="246pt"
 viewBox="0.00 0.00 442.00 246.20" xmlns="http://www.w3.org/2000/svg" xmlns:xlink="http://www.w3.org/1999/xlink">
<g id="graph0" class="graph" transform="scale(1 1) rotate(0) translate(4 242.2)">
<title>oneDegreeRelationshipsDiagramImplied</title>
<polygon fill="#ffffff" stroke="transparent" points="-4,4 -4,-242.2 438,-242.2 438,4 -4,4"/>
<text text-anchor="middle" x="72.4936" y="-7.3" font-family="Helvetica,sans-Serif" font-size="11.00" fill="#000000">Generated by SchemaSpy</text>
<!-- geography_columns -->
<g id="node1" class="node">
<title>geography_columns</title>
<g id="a_node1"><a xlink:href="../../tables/geography_columns.html" xlink:title="geography_columns" target="_top">
<polygon fill="#ffffff" stroke="transparent" points="254,-170.2 254,-234.2 426,-234.2 426,-170.2 254,-170.2"/>
<polygon fill="#f5f5f5" stroke="transparent" points="254,-211.2 254,-234.2 426,-234.2 426,-211.2 254,-211.2"/>
<polygon fill="none" stroke="#000000" points="254,-211.2 254,-234.2 426,-234.2 426,-211.2 254,-211.2"/>
<text text-anchor="start" x="259" y="-219.8" font-family="Helvetica,sans-Serif" font-weight="bold" font-size="11.00" fill="#000000">geography_columns</text>
<text text-anchor="start" x="392.9448" y="-219.3" font-family="Helvetica,sans-Serif" font-size="11.00" fill="#000000">[view]</text>
<polygon fill="none" stroke="#000000" points="254,-189.2 254,-211.2 426,-211.2 426,-189.2 254,-189.2"/>
<image xlink:href="../../images/foreignKeys.png" width="11px" height="12px" preserveAspectRatio="xMinYMin meet" x="259" y="-206.2"/>
<text text-anchor="start" x="281" y="-196.3" font-family="Helvetica,sans-Serif" font-size="11.00" fill="#000000">srid</text>
<polygon fill="none" stroke="#000000" points="254,-170.2 254,-189.2 426,-189.2 426,-170.2 254,-170.2"/>
<text text-anchor="start" x="257" y="-176.3" font-family="Helvetica,sans-Serif" font-size="11.00" fill="#000000">...</text>
</a>
</g>
</g>
<!-- spatial_ref_sys -->
<g id="node2" class="node">
<title>spatial_ref_sys</title>
<g id="a_node2"><a xlink:href="../../tables/spatial_ref_sys.html" xlink:title="spatial_ref_sys" target="_top">
<polygon fill="#ffffff" stroke="transparent" points="8,-38.2 8,-194.2 205,-194.2 205,-38.2 8,-38.2"/>
<polygon fill="#f5f5f5" stroke="transparent" points="10.5,-169.2 10.5,-192.2 203.5,-192.2 203.5,-169.2 10.5,-169.2"/>
<polygon fill="none" stroke="#000000" points="10.5,-169.2 10.5,-192.2 203.5,-192.2 203.5,-169.2 10.5,-169.2"/>
<text text-anchor="start" x="15.5" y="-177.8" font-family="Helvetica,sans-Serif" font-weight="bold" font-size="11.00" fill="#000000">spatial_ref_sys</text>
<text text-anchor="start" x="168.5437" y="-177.3" font-family="Helvetica,sans-Serif" font-size="11.00" fill="#000000">[table]</text>
<polygon fill="none" stroke="#000000" points="10.5,-147.2 10.5,-169.2 130.5,-169.2 130.5,-147.2 10.5,-147.2"/>
<image xlink:href="../../images/primaryKeys.png" width="11px" height="12px" preserveAspectRatio="xMinYMin meet" x="15.5" y="-164.2"/>
<text text-anchor="start" x="30.5" y="-154.3" font-family="Helvetica,sans-Serif" font-size="11.00" fill="#000000">srid</text>
<polygon fill="none" stroke="#000000" points="130.5,-147.2 130.5,-169.2 203.5,-169.2 203.5,-147.2 130.5,-147.2"/>
<text text-anchor="start" x="133.5" y="-154.9" font-family="Helvetica,sans-Serif" font-size="11.00" fill="#000000">int4[10]</text>
<polygon fill="none" stroke="#000000" points="10.5,-125.2 10.5,-147.2 130.5,-147.2 130.5,-125.2 10.5,-125.2"/>
<text text-anchor="start" x="30.5" y="-132.3" font-family="Helvetica,sans-Serif" font-size="11.00" fill="#000000">auth_name</text>
<polygon fill="none" stroke="#000000" points="130.5,-125.2 130.5,-147.2 203.5,-147.2 203.5,-125.2 130.5,-125.2"/>
<text text-anchor="start" x="133.5" y="-132.9" font-family="Helvetica,sans-Serif" font-size="11.00" fill="#000000">varchar[256]</text>
<polygon fill="none" stroke="#000000" points="10.5,-103.2 10.5,-125.2 130.5,-125.2 130.5,-103.2 10.5,-103.2"/>
<text text-anchor="start" x="30.5" y="-110.3" font-family="Helvetica,sans-Serif" font-size="11.00" fill="#000000">auth_srid</text>
<polygon fill="none" stroke="#000000" points="130.5,-103.2 130.5,-125.2 203.5,-125.2 203.5,-103.2 130.5,-103.2"/>
<text text-anchor="start" x="133.5" y="-110.9" font-family="Helvetica,sans-Serif" font-size="11.00" fill="#000000">int4[10]</text>
<polygon fill="none" stroke="#000000" points="10.5,-81.2 10.5,-103.2 130.5,-103.2 130.5,-81.2 10.5,-81.2"/>
<text text-anchor="start" x="30.5" y="-88.3" font-family="Helvetica,sans-Serif" font-size="11.00" fill="#000000">srtext</text>
<polygon fill="none" stroke="#000000" points="130.5,-81.2 130.5,-103.2 203.5,-103.2 203.5,-81.2 130.5,-81.2"/>
<text text-anchor="start" x="133.3791" y="-88.9" font-family="Helvetica,sans-Serif" font-size="11.00" fill="#000000">varchar[2048]</text>
<polygon fill="none" stroke="#000000" points="10.5,-59.2 10.5,-81.2 130.5,-81.2 130.5,-59.2 10.5,-59.2"/>
<text text-anchor="start" x="30.5" y="-66.3" font-family="Helvetica,sans-Serif" font-size="11.00" fill="#000000">proj4text</text>
<polygon fill="none" stroke="#000000" points="130.5,-59.2 130.5,-81.2 203.5,-81.2 203.5,-59.2 130.5,-59.2"/>
<text text-anchor="start" x="133.3791" y="-66.9" font-family="Helvetica,sans-Serif" font-size="11.00" fill="#000000">varchar[2048]</text>
<polygon fill="#ffffff" stroke="transparent" points="10.5,-40.2 10.5,-59.2 51.5,-59.2 51.5,-40.2 10.5,-40.2"/>
<polygon fill="none" stroke="#000000" points="10.5,-40.2 10.5,-59.2 51.5,-59.2 51.5,-40.2 10.5,-40.2"/>
<text text-anchor="start" x="13.5" y="-46.3" font-family="Helvetica,sans-Serif" font-size="11.00" fill="#000000">&lt; 0</text>
<polygon fill="#ffffff" stroke="transparent" points="51.5,-40.2 51.5,-59.2 130.5,-59.2 130.5,-40.2 51.5,-40.2"/>
<polygon fill="none" stroke="#000000" points="51.5,-40.2 51.5,-59.2 130.5,-59.2 130.5,-40.2 51.5,-40.2"/>
<text text-anchor="start" x="73.7089" y="-46.3" font-family="Helvetica,sans-Serif" font-size="11.00" fill="#000000">8,500 rows</text>
<polygon fill="#ffffff" stroke="transparent" points="130.5,-40.2 130.5,-59.2 203.5,-59.2 203.5,-40.2 130.5,-40.2"/>
<polygon fill="none" stroke="#000000" points="130.5,-40.2 130.5,-59.2 203.5,-59.2 203.5,-40.2 130.5,-40.2"/>
<text text-anchor="start" x="184.9053" y="-46.3" font-family="Helvetica,sans-Serif" font-size="11.00" fill="#000000">2 &gt;</text>
<polygon fill="none" stroke="#000000" stroke-width="2" points="9,-39.2 9,-193.2 204,-193.2 204,-39.2 9,-39.2"/>
</a>
</g>
</g>
<!-- geography_columns&#45;&gt;spatial_ref_sys -->
<g id="edge1" class="edge">
<title>geography_columns:w&#45;&gt;spatial_ref_sys:e</title>
<path fill="none" stroke="#000000" stroke-dasharray="5,2" d="M240.1788,-195.7053C226.481,-184.8704 226.7627,-158.2 203.5,-158.2"/>
<polygon fill="#000000" stroke="#000000" points="246.3922,-197.7259 252.8866,-203.6235 250.1961,-198.9629 254,-200.2 254,-200.2 254,-200.2 250.1961,-198.9629 255.1134,-196.7765 246.3922,-197.7259 246.3922,-197.7259"/>
<ellipse fill="none" stroke="#000000" cx="243.3491" cy="-196.7362" rx="3.2" ry="3.2"/>
</g>
<!-- geometry_columns -->
<g id="node3" class="node">
<title>geometry_columns</title>
<g id="a_node3"><a xlink:href="../../tables/geometry_columns.html" xlink:title="geometry_columns" target="_top">
<polygon fill="#ffffff" stroke="transparent" points="257.5,-85.2 257.5,-149.2 422.5,-149.2 422.5,-85.2 257.5,-85.2"/>
<polygon fill="#f5f5f5" stroke="transparent" points="258,-126.2 258,-149.2 423,-149.2 423,-126.2 258,-126.2"/>
<polygon fill="none" stroke="#000000" points="258,-126.2 258,-149.2 423,-149.2 423,-126.2 258,-126.2"/>
<text text-anchor="start" x="263" y="-134.8" font-family="Helvetica,sans-Serif" font-weight="bold" font-size="11.00" fill="#000000">geometry_columns</text>
<text text-anchor="start" x="389.9448" y="-134.3" font-family="Helvetica,sans-Serif" font-size="11.00" fill="#000000">[view]</text>
<polygon fill="none" stroke="#000000" points="258,-104.2 258,-126.2 423,-126.2 423,-104.2 258,-104.2"/>
<image xlink:href="../../images/foreignKeys.png" width="11px" height="12px" preserveAspectRatio="xMinYMin meet" x="263" y="-121.2"/>
<text text-anchor="start" x="285" y="-111.3" font-family="Helvetica,sans-Serif" font-size="11.00" fill="#000000">srid</text>
<polygon fill="none" stroke="#000000" points="258,-85.2 258,-104.2 423,-104.2 423,-85.2 258,-85.2"/>
<text text-anchor="start" x="261" y="-91.3" font-family="Helvetica,sans-Serif" font-size="11.00" fill="#000000">...</text>
</a>
</g>
</g>
<!-- geometry_columns&#45;&gt;spatial_ref_sys -->
<g id="edge2" class="edge">
<title>geometry_columns:w&#45;&gt;spatial_ref_sys:e</title>
<path fill="none" stroke="#000000" stroke-dasharray="5,2" d="M244.1573,-119.1683C228.511,-129.8133 228.5686,-158.2 203.5,-158.2"/>
<polygon fill="#000000" stroke="#000000" points="250.3097,-117.4046 258.9921,-118.6606 254.1549,-116.3023 258,-115.2 258,-115.2 258,-115.2 254.1549,-116.3023 257.0079,-111.7394 250.3097,-117.4046 250.3097,-117.4046"/>
<ellipse fill="none" stroke="#000000" cx="247.2336" cy="-118.2864" rx="3.2" ry="3.2"/>
</g>
</g>
</svg>
