<?xml version="1.0" encoding="UTF-8" standalone="no"?>
<!DOCTYPE svg PUBLIC "-//W3C//DTD SVG 1.1//EN"
 "http://www.w3.org/Graphics/SVG/1.1/DTD/svg11.dtd">
<!-- Generated by graphviz version 2.40.1 (20161225.0304)
 -->
<!-- Title: oneDegreeRelationshipsDiagram Pages: 1 -->
<svg width="351pt" height="382pt"
 viewBox="0.00 0.00 351.00 382.20" xmlns="http://www.w3.org/2000/svg" xmlns:xlink="http://www.w3.org/1999/xlink">
<g id="graph0" class="graph" transform="scale(1 1) rotate(0) translate(4 378.2)">
<title>oneDegreeRelationshipsDiagram</title>
<polygon fill="#ffffff" stroke="transparent" points="-4,4 -4,-378.2 347,-378.2 347,4 -4,4"/>
<text text-anchor="middle" x="72.4936" y="-7.3" font-family="Helvetica,sans-Serif" font-size="11.00" fill="#000000">Generated by SchemaSpy</text>
<!-- surveillance_alerts -->
<g id="node1" class="node">
<title>surveillance_alerts</title>
<g id="a_node1"><a xlink:href="../../tables/surveillance_alerts.html" xlink:title="surveillance_alerts" target="_top">
<polygon fill="#ffffff" stroke="transparent" points="8,-38.2 8,-370.2 335,-370.2 335,-38.2 8,-38.2"/>
<polygon fill="#f5f5f5" stroke="transparent" points="10.5,-345.2 10.5,-368.2 333.5,-368.2 333.5,-345.2 10.5,-345.2"/>
<polygon fill="none" stroke="#000000" points="10.5,-345.2 10.5,-368.2 333.5,-368.2 333.5,-345.2 10.5,-345.2"/>
<text text-anchor="start" x="15.5" y="-353.8" font-family="Helvetica,sans-Serif" font-weight="bold" font-size="11.00" fill="#000000">surveillance_alerts</text>
<text text-anchor="start" x="298.5437" y="-353.3" font-family="Helvetica,sans-Serif" font-size="11.00" fill="#000000">[table]</text>
<polygon fill="none" stroke="#000000" points="10.5,-323.2 10.5,-345.2 234.5,-345.2 234.5,-323.2 10.5,-323.2"/>
<image xlink:href="../../images/primaryKeys.png" width="11px" height="12px" preserveAspectRatio="xMinYMin meet" x="15.5" y="-340.2"/>
<text text-anchor="start" x="30.5" y="-330.3" font-family="Helvetica,sans-Serif" font-size="11.00" fill="#000000">alert_id</text>
<polygon fill="none" stroke="#000000" points="234.5,-323.2 234.5,-345.2 333.5,-345.2 333.5,-323.2 234.5,-323.2"/>
<text text-anchor="start" x="237.5" y="-330.9" font-family="Helvetica,sans-Serif" font-size="11.00" fill="#000000">serial[10]</text>
<polygon fill="none" stroke="#000000" points="10.5,-301.2 10.5,-323.2 234.5,-323.2 234.5,-301.2 10.5,-301.2"/>
<text text-anchor="start" x="30.5" y="-308.3" font-family="Helvetica,sans-Serif" font-size="11.00" fill="#000000">anomaly_id</text>
<polygon fill="none" stroke="#000000" points="234.5,-301.2 234.5,-323.2 333.5,-323.2 333.5,-301.2 234.5,-301.2"/>
<text text-anchor="start" x="237.5" y="-308.9" font-family="Helvetica,sans-Serif" font-size="11.00" fill="#000000">int4[10]</text>
<polygon fill="none" stroke="#000000" points="10.5,-279.2 10.5,-301.2 234.5,-301.2 234.5,-279.2 10.5,-279.2"/>
<text text-anchor="start" x="30.5" y="-286.3" font-family="Helvetica,sans-Serif" font-size="11.00" fill="#000000">alert_level</text>
<polygon fill="none" stroke="#000000" points="234.5,-279.2 234.5,-301.2 333.5,-301.2 333.5,-279.2 234.5,-279.2"/>
<text text-anchor="start" x="237.5" y="-286.9" font-family="Helvetica,sans-Serif" font-size="11.00" fill="#000000">varchar[20]</text>
<polygon fill="none" stroke="#000000" points="10.5,-257.2 10.5,-279.2 234.5,-279.2 234.5,-257.2 10.5,-257.2"/>
<text text-anchor="start" x="30.5" y="-264.3" font-family="Helvetica,sans-Serif" font-size="11.00" fill="#000000">alert_type</text>
<polygon fill="none" stroke="#000000" points="234.5,-257.2 234.5,-279.2 333.5,-279.2 333.5,-257.2 234.5,-257.2"/>
<text text-anchor="start" x="237.5" y="-264.9" font-family="Helvetica,sans-Serif" font-size="11.00" fill="#000000">varchar[100]</text>
<polygon fill="none" stroke="#000000" points="10.5,-235.2 10.5,-257.2 234.5,-257.2 234.5,-235.2 10.5,-235.2"/>
<text text-anchor="start" x="30.5" y="-242.3" font-family="Helvetica,sans-Serif" font-size="11.00" fill="#000000">requires_immediate_attention</text>
<polygon fill="none" stroke="#000000" points="234.5,-235.2 234.5,-257.2 333.5,-257.2 333.5,-235.2 234.5,-235.2"/>
<text text-anchor="start" x="237.5" y="-242.9" font-family="Helvetica,sans-Serif" font-size="11.00" fill="#000000">bool[1]</text>
<polygon fill="none" stroke="#000000" points="10.5,-213.2 10.5,-235.2 234.5,-235.2 234.5,-213.2 10.5,-213.2"/>
<text text-anchor="start" x="30.5" y="-220.3" font-family="Helvetica,sans-Serif" font-size="11.00" fill="#000000">alert_title</text>
<polygon fill="none" stroke="#000000" points="234.5,-213.2 234.5,-235.2 333.5,-235.2 333.5,-213.2 234.5,-213.2"/>
<text text-anchor="start" x="237.5" y="-220.9" font-family="Helvetica,sans-Serif" font-size="11.00" fill="#000000">varchar[255]</text>
<polygon fill="none" stroke="#000000" points="10.5,-191.2 10.5,-213.2 234.5,-213.2 234.5,-191.2 10.5,-191.2"/>
<text text-anchor="start" x="30.5" y="-198.3" font-family="Helvetica,sans-Serif" font-size="11.00" fill="#000000">alert_status</text>
<polygon fill="none" stroke="#000000" points="234.5,-191.2 234.5,-213.2 333.5,-213.2 333.5,-191.2 234.5,-191.2"/>
<text text-anchor="start" x="237.5" y="-198.9" font-family="Helvetica,sans-Serif" font-size="11.00" fill="#000000">varchar[20]</text>
<polygon fill="none" stroke="#000000" points="10.5,-169.2 10.5,-191.2 234.5,-191.2 234.5,-169.2 10.5,-169.2"/>
<text text-anchor="start" x="30.5" y="-176.3" font-family="Helvetica,sans-Serif" font-size="11.00" fill="#000000">confidence_score</text>
<polygon fill="none" stroke="#000000" points="234.5,-169.2 234.5,-191.2 333.5,-191.2 333.5,-169.2 234.5,-169.2"/>
<text text-anchor="start" x="237.5" y="-176.9" font-family="Helvetica,sans-Serif" font-size="11.00" fill="#000000">numeric[3,2]</text>
<polygon fill="none" stroke="#000000" points="10.5,-147.2 10.5,-169.2 234.5,-169.2 234.5,-147.2 10.5,-147.2"/>
<text text-anchor="start" x="30.5" y="-154.3" font-family="Helvetica,sans-Serif" font-size="11.00" fill="#000000">record_created_at</text>
<polygon fill="none" stroke="#000000" points="234.5,-147.2 234.5,-169.2 333.5,-169.2 333.5,-147.2 234.5,-147.2"/>
<text text-anchor="start" x="237.5" y="-154.9" font-family="Helvetica,sans-Serif" font-size="11.00" fill="#000000">timestamp[29,6]</text>
<polygon fill="none" stroke="#000000" points="10.5,-125.2 10.5,-147.2 234.5,-147.2 234.5,-125.2 10.5,-125.2"/>
<text text-anchor="start" x="30.5" y="-132.3" font-family="Helvetica,sans-Serif" font-size="11.00" fill="#000000">description</text>
<polygon fill="none" stroke="#000000" points="234.5,-125.2 234.5,-147.2 333.5,-147.2 333.5,-125.2 234.5,-125.2"/>
<text text-anchor="start" x="237.5" y="-132.9" font-family="Helvetica,sans-Serif" font-size="11.00" fill="#000000">text[2147483647]</text>
<polygon fill="none" stroke="#000000" points="10.5,-103.2 10.5,-125.2 234.5,-125.2 234.5,-103.2 10.5,-103.2"/>
<text text-anchor="start" x="30.5" y="-110.3" font-family="Helvetica,sans-Serif" font-size="11.00" fill="#000000">evidence_summary</text>
<polygon fill="none" stroke="#000000" points="234.5,-103.2 234.5,-125.2 333.5,-125.2 333.5,-103.2 234.5,-103.2"/>
<text text-anchor="start" x="237.2258" y="-110.9" font-family="Helvetica,sans-Serif" font-size="11.00" fill="#000000">jsonb[2147483647]</text>
<polygon fill="none" stroke="#000000" points="10.5,-81.2 10.5,-103.2 234.5,-103.2 234.5,-81.2 10.5,-81.2"/>
<text text-anchor="start" x="30.5" y="-88.3" font-family="Helvetica,sans-Serif" font-size="11.00" fill="#000000">assigned_to</text>
<polygon fill="none" stroke="#000000" points="234.5,-81.2 234.5,-103.2 333.5,-103.2 333.5,-81.2 234.5,-81.2"/>
<text text-anchor="start" x="237.5" y="-88.9" font-family="Helvetica,sans-Serif" font-size="11.00" fill="#000000">varchar[100]</text>
<polygon fill="none" stroke="#000000" points="10.5,-59.2 10.5,-81.2 234.5,-81.2 234.5,-59.2 10.5,-59.2"/>
<text text-anchor="start" x="30.5" y="-66.3" font-family="Helvetica,sans-Serif" font-size="11.00" fill="#000000">updated_at</text>
<polygon fill="none" stroke="#000000" points="234.5,-59.2 234.5,-81.2 333.5,-81.2 333.5,-59.2 234.5,-59.2"/>
<text text-anchor="start" x="237.5" y="-66.9" font-family="Helvetica,sans-Serif" font-size="11.00" fill="#000000">timestamp[29,6]</text>
<polygon fill="#ffffff" stroke="transparent" points="10.5,-40.2 10.5,-59.2 126.5,-59.2 126.5,-40.2 10.5,-40.2"/>
<polygon fill="none" stroke="#000000" points="10.5,-40.2 10.5,-59.2 126.5,-59.2 126.5,-40.2 10.5,-40.2"/>
<text text-anchor="start" x="13.5" y="-46.3" font-family="Helvetica,sans-Serif" font-size="11.00" fill="#000000">&lt; 0</text>
<polygon fill="#ffffff" stroke="transparent" points="126.5,-40.2 126.5,-59.2 234.5,-59.2 234.5,-40.2 126.5,-40.2"/>
<polygon fill="none" stroke="#000000" points="126.5,-40.2 126.5,-59.2 234.5,-59.2 234.5,-40.2 126.5,-40.2"/>
<text text-anchor="start" x="225.3862" y="-46.3" font-family="Helvetica,sans-Serif" font-size="11.00" fill="#000000"> &#160;</text>
<polygon fill="#ffffff" stroke="transparent" points="234.5,-40.2 234.5,-59.2 333.5,-59.2 333.5,-40.2 234.5,-40.2"/>
<polygon fill="none" stroke="#000000" points="234.5,-40.2 234.5,-59.2 333.5,-59.2 333.5,-40.2 234.5,-40.2"/>
<text text-anchor="start" x="314.9053" y="-46.3" font-family="Helvetica,sans-Serif" font-size="11.00" fill="#000000">0 &gt;</text>
<polygon fill="none" stroke="#000000" stroke-width="2" points="9,-39.2 9,-369.2 334,-369.2 334,-39.2 9,-39.2"/>
</a>
</g>
</g>
</g>
</svg>
